<svg viewBox="0 0 88.0005 64.0002" xmlns="http://www.w3.org/2000/svg" xmlns:xlink="http://www.w3.org/1999/xlink" width="88.000488" height="64.000244" fill="none" customFrame="#000000"><defs><radialGradient id="paint_radial_0" cx="0" cy="0" r="1" gradientUnits="userSpaceOnUse" gradientTransform="matrix(0,-17.288,17.5963,0,25.8371,24.4262)"><stop stop-color="rgb(252,234,16)" offset="0.00581718003" stop-opacity="1"/><stop stop-color="rgb(197,133,17)" offset="1" stop-opacity="1"/></radialGradient><radialGradient id="paint_radial_1" cx="0" cy="0" r="1" gradientUnits="userSpaceOnUse" gradientTransform="matrix(0,-30.5948,31.1404,0,34.1069,-0.360867)"><stop stop-color="rgb(252,234,16)" offset="0.00581718003" stop-opacity="1"/><stop stop-color="rgb(197,133,17)" offset="1" stop-opacity="1"/></radialGradient><radialGradient id="paint_radial_2" cx="0" cy="0" r="1" gradientUnits="userSpaceOnUse" gradientTransform="matrix(0,-45.4122,46.2219,0,41.9207,23.8755)"><stop stop-color="rgb(252,234,16)" offset="0.00581718003" stop-opacity="1"/><stop stop-color="rgb(197,133,17)" offset="1" stop-opacity="1"/></radialGradient><radialGradient id="paint_radial_3" cx="0" cy="0" r="1" gradientUnits="userSpaceOnUse" gradientTransform="matrix(0,-22.0348,22.4277,0,9.15775,24.0132)"><stop stop-color="rgb(252,234,16)" offset="0.00581718003" stop-opacity="1"/><stop stop-color="rgb(197,133,17)" offset="1" stop-opacity="1"/></radialGradient><radialGradient id="paint_radial_4" cx="0" cy="0" r="1" gradientUnits="userSpaceOnUse" gradientTransform="matrix(0,-25.3933,25.8461,0,33.9667,48.8005)"><stop stop-color="rgb(252,234,16)" offset="0.00581718003" stop-opacity="1"/><stop stop-color="rgb(197,133,17)" offset="1" stop-opacity="1"/></radialGradient><radialGradient id="paint_radial_5" cx="0" cy="0" r="1" gradientUnits="userSpaceOnUse" gradientTransform="matrix(0,-21.9476,22.339,0,15.8857,55.2726)"><stop stop-color="rgb(252,234,16)" offset="0.00581718003" stop-opacity="1"/><stop stop-color="rgb(197,133,17)" offset="1" stop-opacity="1"/></radialGradient><radialGradient id="paint_radial_6" cx="0" cy="0" r="1" gradientUnits="userSpaceOnUse" gradientTransform="matrix(0,-25.3412,25.7931,0,21.3521,39.4363)"><stop stop-color="rgb(252,234,16)" offset="0.00581718003" stop-opacity="1"/><stop stop-color="rgb(197,133,17)" offset="1" stop-opacity="1"/></radialGradient></defs><g id="XMLID_2_"><path id="XMLID_9_" d="M34.2463 16.933L31.447 8.46729L26.1621 24.446L31.7625 24.446L34.2463 16.933Z" fill="url(#paint_radial_0)" fill-rule="nonzero"/><path id="XMLID_9_" d="M31.447 8.46729L31.9736 10.0598L34.2463 16.933L31.7625 24.446L26.1621 24.446L30.9203 10.0597L31.447 8.46729ZM27.5461 23.446L31.0399 23.446L33.1931 16.9331L31.4469 11.6522L27.5461 23.446Z" fill="rgb(0,0,0)" fill-rule="evenodd"/><path id="XMLID_8_" d="M37.2663 26.0631L42.3325 29.6794L44.0619 29.6794L42.3308 24.4461L34.2466 0L31.4473 8.46741L34.2466 16.9332L37.2663 26.0631Z" fill="url(#paint_radial_1)" fill-rule="nonzero"/><path id="XMLID_8_" d="M42.3325 29.6794L37.2663 26.0631L34.2466 16.9332L31.4473 8.46741L33.7201 1.59272L34.2466 0L34.7733 1.59267L42.3308 24.4461L43.7311 28.6794L44.0619 29.6794L42.3325 29.6794ZM42.6778 28.6794L41.3814 24.7601L34.2467 3.18539L32.5005 8.46738L35.1961 16.6192L38.1132 25.439L42.6528 28.6794L42.6778 28.6794Z" fill="rgb(0,0,0)" fill-rule="evenodd"/><path id="XMLID_7_" d="M52.1012 29.6793L80.6689 29.6793L88.0003 24.446L42.3311 24.446L44.0621 29.6793L52.1012 29.6793Z" fill="url(#paint_radial_2)" fill-rule="nonzero"/><path id="XMLID_7_" d="M80.6689 29.6793L44.0621 29.6793L42.6618 25.446L42.3311 24.446L88.0003 24.446L86.5994 25.446L80.6689 29.6793ZM80.3487 28.6793L44.7846 28.6793L43.7151 25.446L84.8782 25.446L80.3487 28.6793Z" fill="rgb(0,0,0)" fill-rule="evenodd"/><path id="XMLID_6_" d="M26.1621 29.6793L31.2283 26.0631L31.7625 24.446L26.1621 24.446L9.06055 24.446L16.3919 29.6793L26.1621 29.6793Z" fill="url(#paint_radial_3)" fill-rule="nonzero"/><path id="XMLID_6_" d="M31.2283 26.0631L26.1621 29.6793L16.3919 29.6793L9.06055 24.446L31.7625 24.446L31.4321 25.446L31.2283 26.0631ZM30.3715 25.446L12.1827 25.446L16.7122 28.6793L25.8418 28.6793L30.3715 25.446Z" fill="rgb(0,0,0)" fill-rule="evenodd"/><path id="XMLID_5_" d="M23.2128 50.3011L15.8814 55.5344L13.082 64.0001L34.2466 48.8923L29.7162 45.6582L23.2128 50.3011Z" fill="url(#paint_radial_4)" fill-rule="nonzero"/><path id="XMLID_5_" d="M16.7283 56.1585L14.9925 61.4078L32.5254 48.8923L29.7162 46.8869L23.7938 51.115L16.7283 56.1585ZM29.7162 45.6582L33.386 48.278L34.2466 48.8923L33.386 49.5066L14.4607 63.016L13.082 64.0001L13.6138 62.3919L15.8814 55.5344L23.2128 50.3011L29.7162 45.6582Z" fill="rgb(0,0,0)" fill-rule="evenodd"/><path id="XMLID_4_" d="M26.2308 41.171L24.2961 35.321L22.8956 34.3223L21.1662 39.5539L15.8813 55.5342L23.2127 50.3009L26.2308 41.171Z" fill="url(#paint_radial_5)" fill-rule="nonzero"/><path id="XMLID_4_" d="M24.2961 35.321L26.2308 41.171L23.2127 50.3009L17.2601 54.5501L15.8813 55.5342L16.4132 53.9259L21.1662 39.5539L22.567 35.3162L22.8956 34.3223L23.7479 34.9301L24.2961 35.321ZM23.4193 35.924L22.1157 39.8678L17.792 52.9418L22.3658 49.6769L25.1775 41.171L23.4493 35.9454L23.4193 35.924Z" fill="rgb(0,0,0)" fill-rule="evenodd"/><path id="XMLID_3_" d="M16.3921 29.6793L9.06074 24.446L0 24.446L21.1662 39.5539L22.8956 34.3222L16.3921 29.6793Z" fill="url(#paint_radial_6)" fill-rule="nonzero"/><path id="XMLID_3_" d="M8.74044 25.446L3.1223 25.446L20.6426 37.9516L21.7148 34.708L15.8111 30.4932L8.74044 25.446ZM22.8956 34.3222L21.4948 38.5598L21.1662 39.5539L20.314 38.9456L0 24.446L9.06074 24.446L16.3921 29.6793L22.8956 34.3222Z" fill="rgb(0,0,0)" fill-rule="evenodd"/></g></svg>