<svg width="0" height="0" class="hidden"><symbol xmlns="http://www.w3.org/2000/svg" xmlns:xlink="http://www.w3.org/1999/xlink" fill="none" customFrame="#000000" viewBox="0 0 40 40" id="facebook"><rect id="socials" width="40.000000" height="40.000000" x="0.000000" y="0.000000"/><rect id="Rectangle 1" width="40.000000" height="40.000000" x="0.000000" y="0.000000" rx="20.000000" fill="rgb(253,251.16,249)"/><path id="Vector" d="M21.6571 20.3648L25.3793 20.3648L25.9637 16.5605L21.6563 16.5605L21.6563 14.4813C21.6563 12.901 22.1696 11.4996 23.6389 11.4996L26 11.4996L26 8.17974C25.5852 8.12338 24.7078 8 23.05 8C19.5882 8 17.5587 9.8393 17.5587 14.0297L17.5587 16.5605L14 16.5605L14 20.3648L17.5587 20.3648L17.5587 30.821C18.2634 30.9276 18.9773 31 19.7101 31C20.3724 31 21.0189 30.9391 21.6571 30.8522L21.6571 20.3648Z" fill="rgb(43.5625,43.5625,43.5625)" fill-rule="nonzero"/></symbol><symbol xmlns="http://www.w3.org/2000/svg" xmlns:xlink="http://www.w3.org/1999/xlink" fill="none" viewBox="0 0 28 28" id="filter"><rect id="settings-2" width="28.000000" height="28.000000" x="0.000000" y="0.000000"/><path id="Vector" d="M23.334 8.16666L12.834 8.16666" stroke="rgb(43.5625,43.5625,43.5625)" stroke-linecap="round" stroke-linejoin="round" stroke-width="2"/><path id="Vector" d="M16.334 19.8333L5.83398 19.8333" stroke="rgb(43.5625,43.5625,43.5625)" stroke-linecap="round" stroke-linejoin="round" stroke-width="2"/><path id="Vector" d="M19.834 23.3333C17.901 23.3333 16.334 21.7663 16.334 19.8333C16.334 17.9003 17.901 16.3333 19.834 16.3333C21.767 16.3333 23.334 17.9003 23.334 19.8333C23.334 21.7663 21.767 23.3333 19.834 23.3333Z" stroke="rgb(43.5625,43.5625,43.5625)" stroke-linecap="round" stroke-linejoin="round" stroke-width="2"/><path id="Vector" d="M8.16602 11.6667C6.23302 11.6667 4.66602 10.0997 4.66602 8.16669C4.66602 6.23369 6.23302 4.66669 8.16602 4.66669C10.099 4.66669 11.666 6.23369 11.666 8.16669C11.666 10.0997 10.099 11.6667 8.16602 11.6667Z" stroke="rgb(43.5625,43.5625,43.5625)" stroke-linecap="round" stroke-linejoin="round" stroke-width="2"/></symbol><symbol xmlns="http://www.w3.org/2000/svg" xmlns:xlink="http://www.w3.org/1999/xlink" fill="none" customFrame="#000000" viewBox="0 0 70 70" id="icon_plus"><g id="Group 35"><circle id="Ellipse 26" cx="35" cy="35" r="35" fill="currentColor"/><path id="Vector" d="M52 35L35 35L18 35M35 52L35 35M35 35L35 18" stroke-linecap="round" stroke-width="3"/></g></symbol><symbol xmlns="http://www.w3.org/2000/svg" xmlns:xlink="http://www.w3.org/1999/xlink" fill="none" customFrame="#000000" viewBox="0 0 40 40" id="instagram"><rect id="socials" width="40.000000" height="40.000000" x="0.000000" y="0.000000"/><rect id="Rectangle 1" width="40.000000" height="40.000000" x="0.000000" y="0.000000" rx="20.000000" fill="rgb(253,251.16,249)"/><path id="instagram" d="M15.9036 10L24.0964 10C25.1807 10.1205 25.9036 10.241 26.506 10.4819C27.2289 10.8434 27.7108 11.0843 28.3133 11.6867C28.9157 12.2892 29.2771 12.8916 29.5181 13.494C29.759 14.0964 30 14.8193 30 15.9036L30 24.0964C29.8795 25.1807 29.759 25.9036 29.5181 26.506C29.1566 27.2289 28.9157 27.7108 28.3133 28.3133C27.7108 28.9157 27.1084 29.2771 26.506 29.5181C25.9036 29.759 25.1807 30 24.0964 30L15.9036 30C14.8193 29.8795 14.0964 29.759 13.494 29.5181C12.7711 29.1566 12.2892 28.9157 11.6867 28.3133C11.0843 27.7108 10.7229 27.1084 10.4819 26.506C10.241 25.9036 10 25.1807 10 24.0964L10 15.9036C10.1205 14.8193 10.241 14.0964 10.4819 13.494C10.8434 12.7711 11.0843 12.2892 11.6867 11.6867C12.2892 11.0843 12.8916 10.7229 13.494 10.4819C14.0964 10.241 14.8193 10 15.9036 10ZM24.0964 11.8072L15.9036 11.8072C14.9398 11.9277 14.4578 12.0482 14.0964 12.1687C13.6145 12.2892 13.253 12.5301 12.8916 12.8916C12.5301 13.253 12.4096 13.6145 12.1687 14.0964C12.0482 14.4578 11.8072 14.9398 11.8072 15.9036L11.8072 24.0964C11.9277 25.0602 12.0482 25.5422 12.1687 25.9036C12.2892 26.3855 12.5301 26.747 12.8916 27.1084C13.253 27.4699 13.6145 27.5904 14.0964 27.8313C14.4578 27.9518 14.9398 28.1928 15.9036 28.1928L24.0964 28.1928C25.0602 28.0723 25.5422 27.9518 25.9036 27.8313C26.3855 27.7108 26.747 27.4699 27.1084 27.1084C27.4699 26.747 27.5904 26.3855 27.8313 25.9036C27.9518 25.5422 28.1928 25.0602 28.1928 24.0964L28.1928 15.9036C28.0723 14.9398 27.9518 14.4578 27.8313 14.0964C27.7108 13.6145 27.4699 13.253 27.1084 12.8916C26.747 12.5301 26.3855 12.4096 25.9036 12.1687C25.5422 12.0482 25.0602 11.8072 24.0964 11.8072ZM26.506 14.6988C26.506 15.3642 25.9666 15.9036 25.3012 15.9036C24.6358 15.9036 24.0964 15.3642 24.0964 14.6988C24.0964 14.0334 24.6358 13.494 25.3012 13.494C25.9666 13.494 26.506 14.0334 26.506 14.6988ZM20 14.8193C17.1084 14.8193 14.8193 17.1084 14.8193 20C14.8193 22.8916 17.1084 25.1807 20 25.1807C22.8916 25.1807 25.1807 22.8916 25.1807 20C25.1807 17.1084 22.8916 14.8193 20 14.8193ZM20 23.3735C18.1928 23.3735 16.6265 21.9277 16.6265 20C16.6265 18.1928 18.0723 16.6265 20 16.6265C21.8072 16.6265 23.3735 18.0723 23.3735 20C23.3735 21.8072 21.8072 23.3735 20 23.3735Z" fill="rgb(43.5625,43.5625,43.5625)" fill-rule="evenodd"/></symbol><symbol xmlns="http://www.w3.org/2000/svg" xmlns:xlink="http://www.w3.org/1999/xlink" fill="none" customFrame="#000000" viewBox="0 0 27 27" id="interactX2"><rect id="Frame 27" width="27.000000" height="27.000000" x="0.000000" y="0.000000"/><rect id="Rectangle 16" width="24.000000" height="9.000000" x="1.500000" y="1.500000" rx="0.500000" stroke="rgb(43.5625,43.5625,43.5625)" stroke-width="3"/><rect id="Rectangle 17" width="24.000000" height="9.000000" x="1.500000" y="16.500000" rx="0.500000" stroke="rgb(43.5625,43.5625,43.5625)" stroke-width="3"/></symbol><symbol xmlns="http://www.w3.org/2000/svg" xmlns:xlink="http://www.w3.org/1999/xlink" fill="none" customFrame="#000000" viewBox="0 0 27 27" id="interactX4"><rect id="Frame 26" width="27.000000" height="27.000000" x="0.000000" y="0.000000"/><rect id="Rectangle 12" width="9.000000" height="9.000000" x="1.500000" y="1.500000" rx="0.500000" stroke="rgb(43.5625,43.5625,43.5625)" stroke-width="3"/><rect id="Rectangle 13" width="9.000000" height="9.000000" x="16.500000" y="1.500000" rx="0.500000" stroke="rgb(43.5625,43.5625,43.5625)" stroke-width="3"/><rect id="Rectangle 14" width="9.000000" height="9.000000" x="16.500000" y="16.500000" rx="0.500000" stroke="rgb(43.5625,43.5625,43.5625)" stroke-width="3"/><rect id="Rectangle 15" width="9.000000" height="9.000000" x="1.500000" y="16.500000" rx="0.500000" stroke="rgb(43.5625,43.5625,43.5625)" stroke-width="3"/></symbol><symbol xmlns="http://www.w3.org/2000/svg" xmlns:xlink="http://www.w3.org/1999/xlink" fill="none" customFrame="#000000" viewBox="0 0 23 3" id="minus"><path id="Vector" d="M21.5 1.5L1.5 1.5" stroke="rgb(43.5625,43.5625,43.5625)" stroke-linecap="round" stroke-width="3"/></symbol><symbol xmlns="http://www.w3.org/2000/svg" xmlns:xlink="http://www.w3.org/1999/xlink" fill="none" customFrame="#000000" viewBox="0 0 23 23" id="plus"><path id="Vector" d="M21.5 11.5L11.5 11.5L1.5 11.5M11.5 21.5L11.5 11.5M11.5 11.5L11.5 1.5" stroke="rgb(43.5625,43.5625,43.5625)" stroke-linecap="round" stroke-width="3"/></symbol><symbol xmlns="http://www.w3.org/2000/svg" xmlns:xlink="http://www.w3.org/1999/xlink" fill="none" viewBox="0 0 28 28" id="search"><rect id="search" width="28.000000" height="28.000000" x="0.000000" y="0.000000"/><path id="Vector" d="M12.8333 22.1667C7.67868 22.1667 3.5 17.988 3.5 12.8333C3.5 7.67868 7.67868 3.5 12.8333 3.5C17.988 3.5 22.1667 7.67868 22.1667 12.8333C22.1667 17.988 17.988 22.1667 12.8333 22.1667Z" stroke="rgb(43.5625,43.5625,43.5625)" stroke-linecap="round" stroke-linejoin="round" stroke-width="2"/><path id="Vector" d="M24.5008 24.5L19.4258 19.425" stroke="rgb(43.5625,43.5625,43.5625)" stroke-linecap="round" stroke-linejoin="round" stroke-width="2"/></symbol><symbol xmlns="http://www.w3.org/2000/svg" xmlns:xlink="http://www.w3.org/1999/xlink" fill="none" customFrame="#000000" viewBox="0 0 20 23" id="shop_chrest"><rect id="Frame 36" width="20.000000" height="23.000000" x="0.000000" y="0.000000" fill="rgb(255,255,255)" fill-opacity="0"/><circle id="Ellipse 20" cx="10" cy="13" r="10" fill="#666666"/><path id="Vector" d="M6 9L14 17M14 9L6 17" stroke="#ffffff" stroke-linecap="round" stroke-linejoin="round" stroke-width="2.2"/></symbol><symbol xmlns="http://www.w3.org/2000/svg" xmlns:xlink="http://www.w3.org/1999/xlink" fill="none" viewBox="0 0 28 28" id="shopping-bag"><rect id="shopping-bag" width="28.000000" height="28.000000" x="0.000000" y="0.000000"/><path id="Vector" d="M3.5 7L3.5 23.3333C3.5 23.9522 3.74583 24.5457 4.18342 24.9833C4.621 25.4208 5.21449 25.6667 5.83333 25.6667L22.1667 25.6667C22.7855 25.6667 23.379 25.4208 23.8166 24.9833C24.2542 24.5457 24.5 23.9522 24.5 23.3333L24.5 7L21 2.33334L7 2.33334L3.5 7Z" fill-rule="nonzero" stroke="currentColor" stroke-linecap="round" stroke-linejoin="round" stroke-width="2"/><path id="Vector" d="M3.5 7L24.5 7" stroke="currentColor" stroke-linecap="round" stroke-linejoin="round" stroke-width="2"/><path id="Vector" d="M18.6693 11.6667C18.6693 12.9043 18.1776 14.0913 17.3024 14.9665C16.4273 15.8417 15.2403 16.3333 14.0026 16.3333C12.7649 16.3333 11.5779 15.8417 10.7028 14.9665C9.8276 14.0913 9.33594 12.9043 9.33594 11.6667" fill-rule="nonzero" stroke="currentColor" stroke-linecap="round" stroke-linejoin="round" stroke-width="2"/></symbol><symbol xmlns="http://www.w3.org/2000/svg" xmlns:xlink="http://www.w3.org/1999/xlink" fill="none" customFrame="#000000" viewBox="0 0 40 40" id="twitter"><rect id="socials" width="40.000000" height="40.000000" x="0.000000" y="0.000000"/><rect id="Rectangle 1" width="40.000000" height="40.000000" x="0.000000" y="0.000000" rx="20.000000" fill="rgb(253,251.16,249)"/><path id="Vector" d="M30.6 14.9C29.9 15.2 29.1 15.4 28.3 15.5C29.1 15 29.8 14.2 30.1 13.3C29.3 13.8 28.5 14.1 27.5 14.3C26.8 13.5 25.7 13 24.6 13C22.4 13 20.6 14.8 20.6 17C20.6 17.3 20.6 17.6 20.7 17.9C17.4 17.7 14.4 16.1 12.4 13.7C12.1 14.3 11.9 15 11.9 15.7C11.9 17.1 12.6 18.3 13.7 19C13 19 12.4 18.8 11.9 18.5C11.9 20.4 13.3 22.1 15.1 22.4C14.8 22.5 14.4 22.5 14 22.5C13.7 22.5 13.5 22.5 13.2 22.4C13.7 24 15.2 25.2 17 25.2C15.6 26.3 13.9 26.9 12 26.9C11.7 26.9 11.4 26.9 11 26.8C12.8 27.9 14.9 28.6 17.2 28.6C24.6 28.6 28.6 22.5 28.6 17.2L28.6 16.7C29.4 16.4 30.1 15.7 30.6 14.9Z" fill="rgb(43.5625,43.5625,43.5625)" fill-rule="nonzero"/></symbol><symbol xmlns="http://www.w3.org/2000/svg" xmlns:xlink="http://www.w3.org/1999/xlink" fill="none" customFrame="#000000" viewBox="0 0 33.0898 23.0122" id="arrow-left"><path id="left" d="M31.5898 11.5061L1.58984 11.5061M12.5898 21.5061L1.58984 11.5061L12.5898 1.5061" stroke="currentColor" stroke-linecap="round" stroke-linejoin="round" stroke-width="3"/></symbol><symbol xmlns="http://www.w3.org/2000/svg" xmlns:xlink="http://www.w3.org/1999/xlink" fill="none" customFrame="#000000" viewBox="0 0 33.0898 23.0122" id="arrow-right"><path id="right" d="M30 10L0 10M11 20L0 10L11 0" stroke="currentColor" stroke-linecap="round" stroke-linejoin="round" stroke-width="3" transform="matrix(-1,0,0,1,31.5,1.5061)"/></symbol><symbol xmlns="http://www.w3.org/2000/svg" xmlns:xlink="http://www.w3.org/1999/xlink" fill="none" customFrame="#000000" viewBox="0 0 150 150" id="eco-friendly"><g id="icon"><circle id="Ellipse 18" cx="75" cy="75" r="75" fill="rgb(253,251.16,249)"/><circle id="Ellipse 18" cx="75" cy="75" r="73.5" stroke="rgb(43.5625,43.5625,43.5625)" stroke-width="3"/><path id="Vector 4" d="M31.2095 123C35.6857 121.729 42.6326 118.748 50.6184 113.684C63.3009 105.643 78.6035 92.3481 90.7902 72.3084M50.6184 113.684C77.5501 120.528 128.615 115.464 117.421 40.4579C92.6725 41.8942 76.3829 49.6537 65.5139 59.5089C59.1456 65.2833 54.6382 71.7771 51.3805 78.1402C48.732 83.3135 46.9096 88.4005 45.5849 92.9439C44.3715 97.1058 43.5757 100.812 42.9451 103.71M51.3805 78.1402C51.5779 73.8037 51.0697 61.6318 47.4588 47.6355M45.5849 92.9439C34.5788 83.2243 19.1702 56.428 45.5849 27C61.8892 34.1776 65.6643 51.6633 65.5139 59.5089" stroke="rgb(43.5625,43.5625,43.5625)" stroke-linecap="round" stroke-linejoin="round" stroke-width="3"/></g></symbol></svg>