<?xml version="1.0" standalone="no"?><!DOCTYPE svg PUBLIC "-//W3C//DTD SVG 20010904//EN"
 "http://www.w3.org/TR/2001/REC-SVG-20010904/DTD/svg10.dtd"><svg version="1.0" xmlns="http://www.w3.org/2000/svg" width="3080.000000pt" height="1600.000000pt" viewBox="0 0 3080.000000 1600.000000" preserveAspectRatio="xMidYMid meet"><g transform="translate(0.000000,1600.000000) scale(0.100000,-0.100000)" fill="#000000" stroke="none"><path d="M0 8000 l0 -8000 15400 0 15400 0 0 8000 0 8000 -15400 0 -15400 0 0
-8000z m21127 7467 c84 -68 451 -414 495 -466 l27 -31 1195 0 1196 0 0 -694 0
-693 62 -49 c80 -62 246 -229 319 -319 148 -183 280 -412 362 -625 118 -306
160 -595 160 -1100 0 -871 -184 -1874 -495 -2700 -197 -523 -492 -1162 -659
-1431 -31 -49 -36 -69 -18 -69 6 0 77 32 158 71 238 116 417 179 508 179 99 0
23 -54 -182 -131 -217 -81 -381 -165 -575 -297 -58 -39 -116 -73 -130 -74 -22
-3 -25 1 -24 27 0 17 11 82 22 145 25 134 42 307 42 437 0 155 -22 237 -122
445 -38 81 -67 151 -63 157 10 17 39 13 63 -9 66 -62 141 -206 166 -320 18
-82 36 -319 36 -474 0 -61 4 -96 9 -90 32 32 266 472 364 684 191 411 404 995
529 1445 107 388 206 889 250 1269 38 331 28 1126 -17 1436 -16 112 -79 323
-130 435 -132 292 -268 490 -489 710 l-141 140 -3 -1118 c-2 -1106 -2 -1119
-22 -1124 -11 -3 -18 -9 -15 -13 3 -5 -77 -75 -177 -156 -101 -81 -207 -168
-235 -192 -29 -24 -53 -41 -52 -36 0 5 34 36 76 69 41 33 87 70 102 83 14 12
83 68 153 125 118 95 126 103 111 119 -15 17 -14 18 10 18 l27 0 0 1855 0
1855 -2355 0 c-2087 0 -2355 -2 -2355 -15 0 -8 -4 -15 -10 -15 -12 0 -12 3 -4
24 6 14 114 16 1121 16 l1116 0 -197 200 c-165 169 -316 339 -316 356 0 17 39
-5 107 -59z m-13177 -392 c0 -27 -39 -94 -143 -250 -104 -156 -204 -314 -252
-400 -105 -188 -131 -237 -190 -355 -390 -779 -685 -1675 -879 -2675 -241
-1240 -297 -2503 -166 -3700 22 -199 80 -602 110 -765 38 -210 60 -326 74
-390 303 -1414 822 -2672 1545 -3750 216 -322 272 -394 271 -347 0 6 -7 59
-15 117 -25 179 -16 420 14 420 9 0 27 -41 35 -80 3 -14 10 -83 16 -155 13
-158 43 -304 104 -493 25 -79 46 -152 46 -163 0 -17 -8 -19 -67 -19 -38 0
-117 5 -178 10 -60 5 -222 16 -360 25 -275 17 -336 23 -356 36 -86 56 542 50
821 -7 34 -7 34 -7 20 14 -132 186 -407 587 -473 688 -271 415 -575 977 -771
1424 -43 96 -83 189 -91 205 -39 87 -146 363 -212 545 -188 523 -359 1144
-452 1650 -12 63 -26 135 -31 160 -35 164 -112 719 -139 1005 -69 720 -78
1602 -21 2135 38 363 107 886 145 1110 8 47 28 168 45 270 128 768 387 1628
712 2363 68 152 253 530 315 642 151 271 363 604 448 703 36 42 75 56 75 27z
m11310 -139 c0 -2 -17 -16 -37 -31 l-38 -26 35 30 c34 31 40 35 40 27z m-160
-131 c0 -2 -10 -9 -22 -15 -22 -11 -22 -10 -4 4 21 17 26 19 26 11z m-3893
-81 c37 -8 90 -26 118 -39 58 -26 168 -107 215 -157 45 -48 118 -160 126 -194
4 -16 10 -33 15 -39 4 -5 12 -46 18 -90 18 -126 0 -257 -50 -360 -36 -73 -140
-184 -181 -192 -15 -3 -28 -9 -28 -14 0 -5 -7 -9 -15 -9 -8 0 -15 3 -14 8 1 4
-2 17 -6 29 -5 15 -13 20 -28 17 -12 -2 -23 -8 -25 -14 -2 -5 -19 -10 -38 -10
-19 0 -34 -4 -34 -8 0 -13 -342 -5 -350 8 -4 6 -10 11 -14 11 -21 -4 -63 16
-79 36 -10 13 -25 23 -33 23 -8 0 -24 16 -35 35 -12 19 -25 33 -30 30 -4 -3
-11 6 -15 20 -3 14 -10 25 -14 25 -5 0 -14 17 -21 38 -6 20 -20 49 -30 64 -20
28 -25 58 -10 58 5 0 12 36 16 80 5 58 11 80 21 80 10 0 14 12 14 40 0 38 -2
40 -30 40 -36 0 -41 27 -10 50 24 17 26 30 5 30 -19 0 -48 -26 -65 -58 -7 -16
-18 -22 -30 -19 -13 3 -17 0 -14 -17 4 -20 4 -20 -4 -1 -5 11 -7 38 -5 60 l4
40 -20 -45 c-10 -25 -22 -53 -25 -63 -5 -17 -33 -34 -41 -25 -10 10 19 136 43
188 79 169 221 287 417 345 59 18 204 17 282 -1z m3728 -54 c-3 -5 -20 -19
-38 -30 -32 -22 -32 -22 3 9 37 32 45 37 35 21z m-85 -64 c0 -2 -8 -10 -17
-17 -16 -13 -17 -12 -4 4 13 16 21 21 21 13z m-60 -50 c0 -2 -8 -10 -17 -17
-16 -13 -17 -12 -4 4 13 16 21 21 21 13z m-307 -251 c-3 -9 -8 -14 -10 -11 -3
3 -2 9 2 15 9 16 15 13 8 -4z m1522 -216 c91 -28 138 -52 203 -105 62 -51 141
-136 161 -173 8 -14 17 -28 20 -31 13 -10 41 -78 58 -141 10 -40 16 -97 16
-150 -5 -320 -218 -557 -527 -585 -87 -8 -170 2 -160 18 5 7 1 9 -9 5 -21 -8
-47 1 -47 17 0 15 -32 17 -41 4 -4 -6 -18 2 -32 18 -15 16 -37 27 -54 28 -19
1 -29 7 -32 21 -5 26 -69 92 -97 99 -21 6 -40 45 -35 74 1 6 -7 12 -19 12 -11
0 -20 6 -20 14 0 7 -7 19 -15 26 -8 7 -12 17 -9 22 3 5 -2 15 -12 22 -15 12
-18 31 -19 147 -2 165 -3 172 -15 164 -6 -3 -10 4 -10 17 0 38 -12 69 -24 65
-6 -2 -11 -10 -11 -18 -1 -8 -4 -25 -8 -39 -4 -14 -12 -56 -16 -95 -5 -38 -14
-86 -21 -105 -7 -19 -17 -48 -23 -63 -18 -51 11 -47 -527 -81 -129 -8 -302
-18 -385 -21 -318 -13 -401 -46 -559 -216 -32 -35 -139 -145 -237 -245 -135
-138 -185 -196 -211 -245 -32 -63 -33 -67 -32 -184 1 -66 11 -307 23 -535 13
-228 26 -482 29 -564 l7 -148 41 -14 c116 -39 222 -111 350 -239 158 -157 222
-279 246 -466 11 -89 14 -99 32 -99 12 0 93 4 181 10 88 5 320 19 515 30 195
11 422 25 503 29 180 11 182 12 286 139 36 44 42 57 36 80 -16 62 -16 152 0
208 33 114 155 199 285 198 106 -1 229 -83 273 -183 30 -69 29 -181 -2 -245
-50 -101 -133 -156 -246 -164 -55 -3 -81 0 -122 17 -47 18 -53 19 -53 4 0 -41
-122 -165 -197 -200 -71 -33 -221 -50 -608 -68 -773 -37 -845 -42 -852 -62 -3
-9 0 -104 7 -212 7 -108 13 -211 13 -228 l0 -33 61 0 c34 0 174 7 311 15 138
8 261 15 275 15 19 0 30 10 49 45 122 231 438 218 548 -21 22 -49 25 -66 21
-133 -4 -54 -12 -88 -29 -120 -33 -61 -106 -123 -163 -140 -67 -19 -180 -10
-231 18 -62 35 -124 101 -136 143 -9 37 -22 47 -33 29 -7 -10 -80 -17 -366
-31 -113 -6 -225 -13 -249 -16 l-44 -6 6 -146 c13 -320 29 -577 36 -585 5 -4
163 1 352 12 367 22 899 51 1404 76 171 9 351 19 402 24 51 5 132 9 180 10 91
2 113 10 113 42 0 26 62 151 104 207 98 134 235 214 411 242 102 16 240 -5
345 -53 36 -16 67 -33 70 -36 3 -3 23 -20 45 -36 102 -76 197 -206 234 -319
17 -54 22 -93 22 -181 0 -62 -4 -123 -10 -136 -5 -13 -14 -43 -20 -67 -7 -23
-16 -40 -21 -37 -6 4 -10 -5 -10 -20 0 -14 -7 -28 -15 -31 -9 -4 -14 -12 -13
-18 4 -17 -151 -166 -173 -166 -11 0 -19 -6 -19 -13 0 -16 -80 -53 -135 -63
-22 -3 -46 -11 -53 -17 -8 -6 -57 -8 -135 -3 -94 5 -125 10 -134 22 -8 11 -20
14 -37 10 -16 -4 -26 -2 -26 5 0 13 -40 48 -56 49 -7 0 -19 11 -28 25 -9 14
-23 25 -32 25 -8 0 -17 7 -20 15 -4 8 -11 12 -16 9 -15 -9 -58 17 -58 35 0 9
-16 32 -36 51 -19 19 -32 41 -29 48 7 19 -13 52 -33 53 -10 0 -12 3 -4 6 6 2
12 9 12 14 0 6 -4 8 -10 4 -5 -3 -15 13 -22 37 -9 32 -10 42 0 46 7 2 12 8 12
13 0 4 -6 6 -14 3 -9 -3 -15 5 -20 26 -3 18 -4 35 -2 39 2 3 5 40 7 81 2 41 8
78 14 83 6 4 5 10 -5 17 -13 8 -12 18 9 77 14 37 31 74 38 81 15 16 17 32 4
32 -21 0 -78 -107 -105 -195 -8 -27 -20 -84 -26 -125 -6 -41 -13 -92 -17 -113
-11 -73 -21 -76 -358 -97 -82 -5 -206 -14 -275 -20 -69 -5 -323 -19 -565 -30
-242 -11 -510 -25 -595 -30 -186 -12 -519 -31 -575 -33 -62 -2 -67 -13 -61
-125 3 -53 8 -151 11 -217 10 -272 18 -404 25 -415 6 -10 67 -9 276 4 148 9
355 21 459 26 331 18 464 28 474 35 6 3 11 14 11 23 0 28 55 114 102 159 23
23 68 54 98 70 49 25 65 28 155 28 90 0 106 -3 158 -28 70 -35 159 -124 191
-192 75 -160 13 -371 -128 -435 -57 -26 -146 -51 -146 -40 0 4 6 11 13 13 6 3
-31 5 -83 4 -91 -2 -95 -1 -122 25 -16 16 -35 28 -43 28 -8 0 -15 6 -15 14 0
8 -3 16 -7 18 -5 2 -22 20 -40 40 -17 20 -33 35 -35 32 -7 -7 -10 26 -8 114 1
53 -3 82 -10 82 -7 0 -10 -24 -9 -65 1 -36 -1 -68 -5 -72 -5 -5 -10 68 -9 127
1 54 15 127 27 135 7 6 17 21 21 35 4 14 14 33 23 43 13 14 13 17 1 12 -16 -6
-68 -84 -88 -130 -7 -16 -19 -43 -27 -58 -8 -16 -14 -46 -14 -68 0 -22 -6 -55
-14 -73 -14 -33 -17 -34 -78 -40 -83 -7 -510 -34 -663 -41 -66 -3 -181 -10
-255 -15 -74 -6 -149 -10 -166 -10 -18 0 -34 -6 -37 -14 -8 -21 21 -628 31
-638 5 -5 85 -4 178 2 878 51 1123 56 1239 26 64 -17 151 -54 179 -77 6 -5 47
-37 91 -71 101 -80 500 -476 552 -548 76 -106 106 -174 132 -305 13 -63 17
-128 41 -615 11 -217 22 -452 26 -522 l6 -127 32 -7 c38 -8 136 -56 178 -86
62 -45 165 -156 200 -214 66 -109 86 -206 80 -384 -2 -42 -5 -51 -13 -40 -8
12 -10 9 -6 -13 2 -15 0 -30 -4 -33 -5 -3 -9 -14 -9 -25 0 -12 -4 -17 -11 -14
-5 4 -15 -7 -22 -24 -6 -17 -14 -31 -18 -31 -4 0 -10 -11 -13 -25 -4 -14 -10
-24 -14 -24 -24 4 -40 -4 -45 -21 -3 -12 -14 -20 -27 -20 -19 0 -20 2 -10 15
7 9 10 18 7 21 -7 8 -41 -24 -56 -53 -12 -23 -41 -32 -41 -13 0 6 -5 10 -11
10 -6 0 -8 -8 -5 -18 5 -14 -8 -22 -67 -45 -39 -14 -73 -22 -75 -17 -2 6 -19
3 -40 -6 -48 -20 -207 -18 -239 3 -12 8 -30 13 -40 12 -10 -2 -33 5 -50 14
-18 10 -33 14 -33 10 0 -5 -5 0 -11 10 -5 9 -16 17 -23 17 -8 0 -16 6 -19 14
-3 8 -18 20 -34 28 -15 7 -28 18 -29 23 -1 18 -27 65 -36 65 -4 0 -8 6 -8 14
0 8 -5 16 -12 18 -14 5 -36 119 -37 190 -1 36 5 53 24 76 14 17 25 35 25 41 0
6 16 11 35 11 24 0 35 5 35 15 0 8 5 15 10 15 7 0 7 -6 0 -19 -13 -25 -14 -73
-1 -52 6 8 9 -12 10 -56 0 -40 8 -87 17 -109 50 -119 125 -168 254 -168 95 0
162 28 223 93 44 47 87 139 87 186 0 30 16 33 25 4 10 -30 -3 -107 -26 -156
-12 -24 -43 -63 -71 -88 l-50 -45 41 18 c45 21 92 69 119 123 17 34 42 42 42
13 0 -8 7 -14 15 -14 13 0 14 4 5 20 -12 23 -6 40 15 40 16 0 25 22 25 66 0
24 5 34 15 34 11 0 15 11 15 40 0 22 -4 40 -9 40 -9 0 -28 43 -33 75 -2 11
-12 29 -23 40 -11 11 -21 26 -23 33 -3 16 -32 44 -68 63 -19 10 -28 22 -26 34
3 14 -1 16 -17 12 -12 -3 -21 -2 -21 2 0 12 -43 29 -94 36 -25 4 -46 11 -46
16 0 7 -135 5 -205 -3 -16 -2 -46 -12 -65 -23 -19 -10 -41 -18 -49 -16 -7 1
-10 -2 -6 -8 3 -7 0 -8 -9 -5 -10 4 -19 -1 -23 -12 -10 -28 -31 -46 -38 -34
-6 10 -55 -8 -55 -20 0 -19 -40 -50 -65 -50 -25 0 -78 -30 -98 -55 -5 -5 -6
-1 -2 10 4 11 10 28 12 38 3 9 13 17 22 17 10 0 12 3 5 8 -15 9 15 82 33 82 7
0 13 6 13 14 0 7 11 24 24 37 13 13 27 35 31 49 16 52 -111 -95 -148 -172 -42
-87 -77 -205 -78 -268 0 -25 -4 -54 -8 -65 -14 -33 -25 66 -18 154 11 136 88
290 192 384 34 31 148 103 185 117 57 22 59 25 54 98 -2 37 -11 209 -19 382
-25 531 -35 723 -40 770 l-5 45 15 -32 c11 -23 18 -96 25 -250 37 -821 47
-993 55 -1001 3 -3 11 0 17 6 9 9 9 12 -1 12 -10 0 -11 3 -2 13 6 8 8 16 6 19
-3 3 -8 61 -10 129 -11 310 -19 442 -26 424 -6 -16 -8 -17 -8 -3 -1 9 4 20 9
23 6 4 8 10 6 14 -3 4 -7 90 -11 192 -14 459 -16 472 -71 566 -25 43 -142 164
-399 413 -156 151 -228 200 -312 214 -42 8 -651 -25 -718 -38 -21 -4 -427 -19
-557 -20 -38 -1 -68 -5 -68 -9 0 -5 -4 -5 -10 -2 -5 3 -10 -1 -10 -11 0 -9
-10 -52 -21 -94 -16 -59 -27 -80 -41 -83 -15 -4 -18 -11 -13 -29 6 -19 5 -21
-6 -11 -19 18 -50 -34 -37 -61 7 -12 7 -16 0 -12 -6 3 -13 2 -17 -3 -3 -6 -12
-8 -20 -5 -8 4 -18 -1 -21 -10 -11 -29 -23 -16 -17 19 8 47 -14 46 -23 -1 -3
-19 -2 -46 4 -58 7 -15 7 -27 0 -37 -8 -11 -9 -10 -4 4 4 13 0 17 -22 17 -16
0 -34 -6 -41 -12 -11 -11 -13 -10 -8 3 4 12 -2 15 -32 13 -20 -1 -75 -2 -123
-3 l-88 -1 0 -40 0 -40 -120 0 -120 0 0 58 0 57 -117 -3 c-66 -2 -120 -8 -124
-14 -4 -6 -34 -7 -83 -3 -55 5 -76 4 -76 -4 0 -17 -676 -9 -708 8 -18 10 -21
9 -16 -4 5 -12 -2 -15 -35 -15 -23 0 -41 5 -41 10 0 13 -37 13 -42 0 -2 -6
-69 -12 -163 -15 -88 -3 -175 -8 -193 -11 -19 -3 -138 -7 -265 -9 -280 -5
-451 -14 -455 -26 -5 -13 -82 -11 -82 1 0 7 -6 7 -19 1 -28 -16 -129 -25 -143
-14 -7 5 -31 8 -53 7 -22 -2 -69 -4 -105 -5 -36 -1 -57 -4 -48 -8 10 -3 -50
-6 -132 -5 -82 1 -191 -3 -242 -8 -161 -14 -232 -18 -451 -20 -205 -2 -214 -1
-262 22 -27 13 -54 26 -59 28 -5 3 -6 -3 -3 -12 4 -9 2 -16 -4 -16 -7 0 -9 10
-5 24 5 19 1 25 -19 30 -14 4 -25 13 -25 21 0 8 -6 12 -14 9 -11 -4 -13 0 -9
17 4 13 2 20 -4 16 -13 -8 -60 96 -68 148 -15 106 -27 278 -40 575 -8 179 -19
386 -25 460 -5 74 -17 295 -25 490 -8 195 -19 416 -25 490 -5 74 -14 250 -20
390 -19 467 -24 563 -40 885 -6 105 -13 269 -17 367 -6 167 -5 179 16 222 28
61 44 60 36 -1 -5 -41 -4 -45 7 -30 38 55 37 60 38 -145 0 -130 4 -198 10
-198 7 0 10 -31 8 -82 -1 -46 3 -175 10 -288 6 -113 14 -275 17 -360 3 -85 10
-225 15 -310 5 -85 12 -247 16 -360 4 -113 11 -211 17 -218 5 -7 7 -31 4 -55
-3 -23 -1 -125 5 -227 6 -102 12 -232 13 -290 1 -58 7 -184 13 -280 6 -96 17
-321 24 -500 7 -179 15 -307 19 -285 4 27 7 4 9 -70 1 -60 2 -113 1 -117 0 -5
7 -8 16 -8 14 0 15 -2 4 -9 -8 -6 -11 -16 -6 -31 7 -22 8 -22 18 -5 10 19 11
19 18 0 11 -29 11 -47 -1 -40 -11 7 -14 -8 -3 -18 3 -4 12 1 19 11 12 16 15
15 38 -13 14 -16 25 -35 26 -40 0 -20 250 -58 250 -38 0 5 53 9 123 9 217 1
510 13 516 22 3 5 89 12 191 16 102 4 214 11 250 16 36 5 106 10 155 10 50 0
106 5 125 10 19 6 103 13 185 14 83 2 161 7 175 10 13 3 41 1 62 -5 52 -14
138 -2 138 20 0 14 25 16 233 16 155 0 239 4 248 11 9 7 68 10 167 9 118 -2
157 1 167 11 8 9 36 14 72 14 33 0 63 4 69 10 5 5 43 10 84 12 74 3 75 4 78
31 3 27 4 27 83 27 l79 0 0 40 0 40 200 0 200 0 0 -51 0 -51 -40 4 c-22 2 -40
0 -40 -3 0 -11 94 -17 105 -7 5 5 4 8 -3 8 -7 0 -12 5 -12 10 0 6 16 10 35 10
19 0 35 -4 35 -9 0 -19 60 -23 85 -7 36 24 39 20 13 -16 -45 -65 -68 -81 -128
-92 -71 -12 -269 -27 -425 -32 -88 -2 -189 -9 -225 -14 -36 -5 -139 -12 -230
-15 -91 -4 -243 -13 -338 -21 -95 -8 -177 -12 -181 -10 -5 3 -46 1 -92 -4 -46
-4 -158 -11 -249 -15 -91 -3 -185 -10 -210 -15 -25 -5 -112 -11 -195 -14 -168
-7 -516 -23 -645 -31 -47 -3 -193 -10 -325 -16 -131 -6 -250 -15 -263 -20 -13
-5 -53 -9 -88 -9 -43 0 -63 -4 -59 -11 4 -5 19 -8 33 -5 24 5 441 20 482 18 8
-1 67 3 130 8 63 5 169 12 235 15 66 3 201 10 300 15 214 11 380 20 490 24 44
2 163 9 265 16 102 7 226 13 275 15 50 1 104 5 120 8 17 3 154 11 305 18 151
6 277 15 280 20 3 5 37 8 75 7 198 -5 570 33 610 62 6 4 27 13 48 19 20 7 37
17 37 22 0 5 6 9 13 9 13 0 78 72 87 96 4 11 10 11 34 -1 36 -19 36 -19 36 5
0 11 -4 20 -10 20 -14 0 -12 16 3 32 8 7 19 37 26 65 13 52 11 115 -19 698 -5
99 -6 258 -3 353 5 127 3 172 -5 172 -8 0 -12 26 -12 80 0 73 -2 80 -20 80
-14 0 -20 7 -20 24 0 13 -3 31 -6 40 -5 12 0 16 21 16 l28 0 -6 122 c-4 66 -7
156 -7 200 0 75 -1 78 -23 78 -23 0 -24 2 -19 80 3 61 1 80 -8 80 -10 0 -12
26 -7 119 4 73 3 121 -3 123 -5 2 -12 103 -15 238 -4 168 -9 236 -18 242 -9 6
-9 8 1 8 7 0 12 14 12 35 0 24 -5 35 -15 35 -11 0 -15 11 -15 40 0 29 4 40 15
40 12 0 15 16 15 80 0 64 -3 80 -15 80 -9 0 -15 9 -15 25 0 14 -4 25 -10 25
-5 0 -10 7 -10 15 0 8 5 15 10 15 14 0 12 54 -2 68 -9 9 -9 12 0 12 17 0 15
20 -4 41 -14 15 -14 22 0 70 9 29 15 71 14 93 l-1 41 -7 -45 c-6 -39 -7 -34
-8 37 -2 55 -6 83 -14 85 -10 4 -13 45 -13 161 0 143 -2 157 -17 157 -14 0
-18 8 -18 35 0 25 -4 33 -14 29 -9 -3 -15 5 -19 24 -3 16 -13 36 -21 45 -8 8
-12 17 -9 21 4 3 1 6 -5 6 -7 0 -12 -8 -12 -17 -1 -11 -11 -1 -27 25 -22 36
-30 42 -49 38 -14 -4 -24 -2 -24 4 0 5 6 10 13 10 25 0 -18 20 -45 20 -18 0
-28 5 -28 15 0 11 -11 15 -40 15 -29 0 -40 -4 -40 -15 0 -13 -36 -15 -262 -16
-145 0 -297 -1 -338 -1 -275 -1 -430 3 -430 12 0 6 58 10 154 10 93 0 157 4
161 10 4 6 55 10 121 10 107 0 114 1 114 20 0 23 35 22 -722 20 l-478 -1 0 40
0 41 -40 0 -40 0 0 -40 0 -40 -40 0 -40 0 0 40 0 40 -40 0 c-33 0 -40 3 -40
20 0 19 -7 20 -120 20 -73 0 -120 4 -120 10 0 14 -78 12 -82 -2 -3 -9 -49 -13
-166 -14 -89 0 -159 3 -156 8 3 4 -13 8 -35 8 -21 0 -41 -4 -43 -9 -2 -5 -58
-11 -125 -14 -107 -5 -121 -3 -116 10 4 11 2 14 -8 11 -8 -3 -14 -10 -14 -16
0 -7 -4 -13 -10 -13 -5 -1 -20 -5 -33 -10 -13 -5 -21 -5 -18 0 3 4 -20 11 -52
14 -44 5 -60 3 -68 -8 -12 -16 -34 -20 -34 -6 0 9 -106 8 -130 -1 -8 -4 -46
-9 -85 -12 -38 -3 -87 -9 -107 -12 -25 -5 -38 -3 -38 5 0 6 10 12 23 12 19 1
20 2 3 6 -11 3 -24 -1 -30 -8 -6 -8 -24 -15 -41 -16 -26 -2 -27 -1 -10 7 14 7
-4 9 -62 8 -58 -2 -83 -6 -83 -14 0 -18 -35 -27 -80 -19 -65 11 -132 8 -141
-6 -4 -8 -11 -10 -15 -7 -3 4 -18 1 -33 -6 -14 -7 -36 -12 -48 -10 -13 2 -23
-1 -23 -6 0 -6 -6 -10 -14 -10 -8 0 -17 -8 -21 -17 -7 -17 -8 -16 -15 2 -8 17
-9 18 -9 2 -1 -11 -18 -25 -48 -38 -27 -11 -65 -37 -86 -57 -21 -20 -40 -36
-42 -34 -3 1 -5 0 -5 -4 1 -3 -14 -19 -32 -36 -18 -17 -32 -38 -31 -47 2 -10
0 -11 -3 -3 -5 10 -9 10 -20 1 -38 -31 -18 38 23 79 7 7 13 18 13 24 0 11 -59
-57 -100 -117 -44 -63 -110 -223 -110 -265 0 -8 -5 -32 -11 -54 -7 -26 -14
-35 -21 -28 -7 7 -23 4 -52 -9 -22 -10 -48 -19 -57 -19 -19 0 -131 -36 -174
-55 -70 -32 -142 -55 -173 -55 -18 0 -31 -3 -29 -7 3 -5 -7 -8 -21 -9 -15 -1
-88 -6 -162 -12 -325 -26 -493 -34 -605 -29 -68 4 -121 11 -123 17 -2 5 -12
10 -22 10 -75 0 -250 112 -393 251 -30 30 -83 81 -118 115 -170 162 -349 359
-349 382 0 6 -3 12 -8 14 -4 2 -22 33 -40 69 -53 110 -77 278 -87 613 -3 87
-7 162 -10 166 -3 5 -7 426 -4 522 0 9 6 22 13 28 25 20 206 63 217 52 8 -8
33 -441 53 -907 12 -266 17 -318 34 -363 26 -67 83 -142 170 -222 37 -34 146
-140 242 -235 120 -118 192 -181 230 -201 54 -28 58 -29 205 -28 83 1 265 9
405 17 140 9 341 21 445 27 341 20 347 21 356 50 29 100 44 136 80 201 63 112
157 218 244 277 22 15 42 30 45 34 10 13 140 68 196 83 31 8 104 19 163 25 58
6 109 14 113 18 4 4 3 70 -2 147 -16 263 -25 530 -25 743 0 117 -3 203 -7 190
-4 -13 -5 51 -1 142 l5 165 -30 38 c-32 40 -99 97 -113 97 -5 0 -9 7 -9 15 0
17 -31 20 -58 6 -28 -15 -126 -30 -163 -25 -48 8 -131 47 -168 80 -78 69 -121
185 -102 274 41 193 235 293 406 211 140 -67 214 -217 175 -356 l-13 -46 39
-32 c119 -95 177 -183 195 -295 10 -63 68 -1130 69 -1255 0 -57 4 -79 14 -83
17 -6 464 21 472 29 3 3 1 94 -5 204 -21 393 -23 428 -15 420 5 -4 11 -29 15
-55 l6 -47 2 57 c0 31 6 60 11 63 17 10 11 25 -9 25 -31 0 -99 41 -148 89
-149 144 -113 381 71 470 171 83 385 -26 426 -217 14 -68 5 -123 -30 -192 -24
-46 -81 -105 -121 -122 l-30 -13 5 -85 c3 -47 11 -195 17 -330 8 -156 16 -248
23 -253 6 -4 36 -5 66 -1 30 4 186 14 347 23 160 9 294 18 297 21 3 4 1 85 -4
180 -5 96 -11 256 -15 355 -10 319 -30 817 -55 1330 -11 234 -11 397 0 325 8
-53 9 -52 17 20 3 30 11 66 18 80 7 14 15 42 19 62 4 21 15 42 24 47 24 12
150 40 197 43 l40 3 7 -100 c3 -55 11 -208 17 -340 7 -132 23 -460 36 -730 14
-269 32 -638 40 -820 8 -181 18 -354 21 -384 l6 -54 126 6 c337 16 568 29 581
33 12 4 13 29 7 142 -18 368 -36 761 -40 882 -4 129 -4 132 8 70 l12 -65 8 73
c9 82 26 102 84 102 18 0 42 5 52 10 34 18 30 56 60 -550 22 -465 33 -635 39
-643 8 -8 613 12 623 22 3 3 -3 179 -14 391 -11 212 -20 516 -21 675 -2 250 0
299 16 354 21 76 77 183 126 243 122 146 470 500 572 581 57 46 182 112 229
121 107 21 144 26 230 35 52 6 239 17 415 26 176 9 364 20 419 25 54 6 130 10
170 10 102 0 114 5 122 49 15 83 91 220 158 283 84 79 219 148 331 168 74 13
201 4 280 -21z m-5426 -339 l23 -35 -26 30 c-14 17 -26 34 -26 39 0 11 0 11
29 -34z m4738 -292 c-2 -13 -4 -3 -4 22 0 25 2 35 4 23 2 -13 2 -33 0 -45z
m-8912 -55 c87 -21 153 -55 237 -122 112 -88 185 -192 224 -316 22 -70 27
-276 8 -316 -7 -13 -17 -42 -23 -64 -12 -48 -69 -128 -83 -119 -6 4 -6 9 -1
13 5 3 15 26 23 51 7 25 17 50 20 55 4 6 13 38 19 73 10 52 10 65 -3 83 -14
20 -15 19 -21 -27 -8 -64 -12 -74 -26 -74 -8 0 -10 35 -8 118 3 140 -5 190
-35 202 -11 5 -15 9 -8 9 21 1 13 29 -10 33 -15 2 -24 11 -26 25 -2 12 -19 36
-38 53 -19 16 -32 30 -28 30 17 0 -52 44 -123 78 l-78 37 -150 -1 c-164 -2
-195 -4 -195 -16 0 -4 -9 -8 -20 -8 -24 0 -120 -58 -120 -72 0 -6 -7 -8 -15
-4 -9 3 -24 -2 -34 -12 -36 -34 -61 -52 -74 -52 -7 0 -17 -10 -22 -22 -11 -24
-35 -37 -35 -19 0 6 18 41 40 77 43 72 44 74 31 74 -15 0 -82 -100 -119 -177
-19 -40 -37 -73 -39 -73 -17 0 9 122 37 177 127 246 419 375 695 306z m8865
-127 c0 -20 71 -156 82 -156 4 0 8 -5 8 -12 0 -20 -39 23 -70 76 -34 60 -47
106 -31 106 6 0 11 -6 11 -14z m-3008 -223 c75 -22 179 -106 224 -181 63 -104
68 -227 15 -338 -45 -93 -70 -110 -181 -129 -106 -17 -179 -19 -145 -5 14 6 4
9 -37 9 -31 1 -60 6 -63 11 -3 6 -14 10 -25 10 -23 0 -112 85 -134 128 -16 32
-16 35 0 60 9 15 13 24 9 20 -5 -4 -14 -3 -22 3 -20 17 -18 155 2 163 9 3 15
17 14 33 -1 21 -3 23 -6 8 -5 -19 -30 -44 -45 -45 -12 0 -10 38 2 45 6 3 9 14
9 23 -1 15 -2 15 -6 0 -2 -10 -9 -18 -13 -18 -5 0 -17 -14 -25 -31 -22 -42
-30 -29 -15 24 14 51 84 137 139 171 87 54 200 68 303 39z m-6287 -230 c-6
-97 -6 -99 29 -170 28 -59 44 -79 82 -103 133 -84 285 -55 410 78 43 46 64 61
64 49 0 -20 -24 -69 -53 -109 -11 -15 -18 -31 -14 -34 10 -10 41 20 79 77 38
56 50 61 42 19 -5 -22 -2 -31 10 -36 18 -7 22 -34 5 -34 -6 0 -8 -7 -5 -16 3
-8 -1 -22 -9 -31 -10 -9 -13 -23 -9 -37 4 -11 3 -18 -1 -14 -5 4 -30 -8 -57
-27 -26 -19 -56 -35 -66 -35 -10 0 -23 -5 -29 -11 -21 -21 -126 -34 -219 -28
-120 9 -157 17 -150 34 3 9 0 12 -9 9 -7 -3 -22 3 -34 13 -11 10 -27 24 -36
31 -8 7 -13 18 -9 23 3 5 2 9 -3 8 -4 -1 -11 0 -15 1 -5 1 -14 3 -20 4 -7 0
-13 8 -13 16 -1 8 -7 14 -15 12 -8 -2 -12 -1 -8 3 3 4 -2 38 -13 76 -20 72
-24 150 -9 184 5 12 9 14 9 6 1 -17 11 -9 15 11 11 57 40 128 53 128 2 0 1
-44 -2 -97z m5915 -193 c0 -5 -5 -10 -11 -10 -5 0 -7 5 -4 10 3 6 8 10 11 10
2 0 4 -4 4 -10z m-71 -51 c6 -18 11 -41 11 -53 0 -19 -1 -19 -14 5 -16 32 -26
79 -16 79 5 0 13 -14 19 -31z m100 -53 c-3 -3 -11 5 -18 17 -13 21 -12 21 5 5
10 -10 16 -20 13 -22z m-55 -49 c7 -6 6 -7 -4 -4 -8 2 -16 12 -17 23 -2 13 -1
15 4 4 3 -8 11 -19 17 -23z m449 -94 c-7 -2 -19 -2 -25 0 -7 3 -2 5 12 5 14 0
19 -2 13 -5z m7182 -1588 c-22 -19 -44 -35 -49 -35 -5 0 11 16 35 34 57 45 66
45 14 1z m-8952 8 c-13 -2 -33 -2 -45 0 -13 2 -3 4 22 4 25 0 35 -2 23 -4z
m-956 -19 c-3 -3 -12 -4 -19 -1 -8 3 -5 6 6 6 11 1 17 -2 13 -5z m9826 -58
c-15 -13 -30 -23 -32 -20 -5 4 41 43 52 44 4 0 -5 -11 -20 -24z m-108 -86 c-3
-5 -12 -10 -18 -10 -7 0 -6 4 3 10 19 12 23 12 15 0z m-6905 -20 c0 -5 -18
-10 -40 -10 -22 0 -40 5 -40 10 0 6 18 10 40 10 22 0 40 -4 40 -10z m6850 -25
c-7 -8 -17 -15 -23 -15 -6 0 -2 7 9 15 25 19 30 19 14 0z m-71 -58 c-2 -1 -13
-9 -24 -17 -19 -14 -19 -14 -6 3 7 9 18 17 24 17 6 0 8 -1 6 -3z m-58 -50
c-10 -9 -11 -8 -5 6 3 10 9 15 12 12 3 -3 0 -11 -7 -18z m-10296 -28 c-4 -5
-12 -9 -18 -8 -9 0 -8 2 1 6 6 2 9 10 6 15 -4 7 -2 8 5 4 6 -4 9 -12 6 -17z
m-34 -52 c-10 -9 -11 -8 -5 6 3 10 9 15 12 12 3 -3 0 -11 -7 -18z m4249 -77
c0 -6 33 -10 80 -10 l80 0 0 -40 0 -40 40 0 40 0 0 -80 c0 -61 3 -80 14 -80
14 0 26 -79 26 -181 0 -52 2 -59 20 -59 18 0 20 -7 20 -80 0 -64 -3 -80 -15
-80 -11 0 -15 -11 -15 -40 0 -29 4 -40 15 -40 11 0 15 -11 15 -40 0 -29 -4
-40 -15 -40 -11 0 -15 -11 -15 -40 0 -29 4 -40 15 -40 12 0 15 -16 15 -80 0
-64 -3 -80 -15 -80 -12 0 -15 -16 -15 -80 0 -61 3 -80 14 -80 16 0 26 82 26
221 0 86 2 99 17 99 15 0 16 -17 10 -182 -4 -99 -7 -243 -7 -320 l0 -138 -35
0 c-34 0 -35 -1 -35 -40 0 -33 3 -40 20 -40 17 0 20 -7 20 -40 0 -29 4 -40 15
-40 11 0 15 -11 15 -40 0 -38 -2 -40 -30 -40 -28 0 -30 -2 -30 -40 0 -29 4
-40 15 -40 12 0 15 -16 15 -80 0 -64 3 -80 15 -80 11 0 15 -11 15 -40 0 -29
-4 -40 -15 -40 -13 0 -15 -24 -15 -160 l0 -160 40 0 40 0 0 -40 0 -40 -40 0
-40 0 0 -40 0 -40 40 0 40 0 0 -120 0 -120 -40 0 -40 0 0 -40 0 -40 40 0 40 0
0 -40 c0 -36 -2 -40 -25 -40 -22 0 -25 -4 -25 -40 l0 -40 -55 0 -55 0 0 -40 0
-40 -40 0 c-40 0 -40 0 -40 39 0 39 -1 40 -37 43 -36 3 -38 5 -38 38 0 25 -5
36 -17 38 -11 2 -19 13 -19 30 l-2 27 -4 -27 c-2 -16 -11 -28 -18 -28 -8 0
-12 -6 -9 -14 3 -8 0 -17 -6 -21 -9 -6 -9 -10 1 -16 11 -7 10 -9 -4 -9 -9 0
-16 -5 -15 -11 2 -6 -2 -13 -7 -15 -6 -3 -9 14 -6 42 2 32 6 42 12 33 5 -8 9
-9 9 -3 0 19 -39 62 -40 44 0 -8 -3 -26 -5 -40 -5 -22 -4 -22 4 -5 8 16 10 12
10 -21 1 -45 -20 -74 -41 -57 -9 7 -101 5 -266 -5 -138 -8 -255 -12 -259 -8
-7 7 -19 163 -28 351 -2 61 -7 133 -10 160 -3 28 -7 131 -10 230 -4 158 -25
649 -40 925 -11 202 -15 301 -21 465 -5 142 -9 177 -26 213 -11 23 -27 42 -35
42 -8 0 -17 9 -20 20 -5 18 -14 20 -89 20 l-84 0 0 40 0 40 40 0 40 0 0 80 0
80 -80 0 -80 0 0 80 0 80 80 0 80 0 0 -80 0 -80 40 0 40 0 0 40 0 40 40 0 40
0 0 40 0 40 80 0 80 0 0 40 0 40 40 0 40 0 0 40 0 40 40 0 40 0 0 40 0 40 160
0 c100 0 160 4 160 10 0 6 18 10 40 10 22 0 40 -4 40 -10z m5740 -113 c0 -2
-10 -12 -22 -23 l-23 -19 19 23 c18 21 26 27 26 19z m-10109 -432 c16 -432 15
-490 -3 -487 -14 2 -18 -4 -18 -28 0 -16 -5 -30 -11 -30 -5 0 -8 -4 -4 -10 8
-13 -81 -36 -189 -50 -49 -6 -104 -17 -122 -25 -18 -7 -58 -19 -91 -25 -32 -7
-61 -17 -65 -24 -5 -8 -8 -8 -8 0 0 8 -17 8 -57 2 -32 -5 -74 -7 -93 -4 -19 3
-29 2 -22 -2 7 -5 -119 -14 -280 -21 -161 -7 -296 -15 -301 -18 -4 -2 -5 -9
-2 -14 4 -5 2 -9 -2 -9 -5 0 -14 -12 -20 -27 -10 -25 -11 -19 -12 42 -2 97
-11 145 -27 145 -10 0 -13 8 -8 28 4 21 3 24 -5 12 -9 -12 -11 -10 -11 12 0
15 -4 30 -10 33 -6 4 -7 -1 -4 -12 5 -17 5 -17 -9 0 -9 11 -13 25 -10 33 3 9
-2 14 -16 14 -12 0 -32 11 -45 25 -18 19 -33 25 -65 25 -23 0 -41 5 -41 11 0
7 -33 9 -107 5 -133 -7 -143 -8 -136 -19 3 -5 -4 -6 -17 -2 -15 5 -20 3 -16
-3 3 -6 -4 -14 -16 -18 -13 -4 -26 -12 -30 -18 -5 -7 -8 -4 -8 8 0 11 14 32
32 48 17 15 27 28 21 28 -6 0 -31 -19 -57 -41 -87 -76 -139 -223 -116 -324 11
-48 5 -59 -11 -19 -30 79 -1 232 58 311 111 148 311 201 464 122 55 -28 152
-122 180 -174 21 -40 28 -45 59 -45 46 0 333 17 490 30 69 5 224 14 345 20
121 6 248 13 283 16 l63 6 -5 136 c-3 76 -8 219 -11 319 l-6 182 23 4 c65 13
62 18 69 -168z m2609 -65 l0 -40 -40 0 c-29 0 -40 -4 -40 -15 0 -11 11 -15 40
-15 29 0 40 4 40 15 0 12 16 15 80 15 l80 0 0 -40 0 -40 40 0 40 0 0 -40 0
-40 40 0 40 0 0 -40 0 -40 40 0 40 0 0 -160 0 -160 80 0 80 0 0 -80 c0 -73 2
-80 20 -80 17 0 20 -7 20 -40 0 -33 3 -40 20 -40 19 0 20 -7 20 -120 0 -100 3
-120 15 -120 11 0 15 -11 15 -40 0 -36 3 -40 25 -40 23 0 25 -4 25 -40 l0 -40
-55 0 -55 0 0 -40 c0 -39 1 -40 34 -40 34 0 35 -1 38 -42 2 -24 8 -42 14 -41
6 1 11 -4 11 -12 0 -8 -3 -12 -7 -10 -4 2 -7 -9 -8 -25 -1 -25 3 -30 24 -30
23 0 24 -2 24 -80 0 -52 4 -80 11 -80 7 0 10 -17 7 -45 -3 -38 -1 -44 14 -39
21 6 29 -27 11 -41 -11 -8 -11 -14 2 -30 15 -20 15 -20 8 0 -6 17 -5 18 9 5
11 -11 13 -17 4 -22 -8 -6 -7 -10 2 -17 11 -6 10 -10 -3 -15 -11 -4 -23 0 -31
11 -7 10 -14 13 -14 7 0 -5 4 -14 9 -20 5 -5 14 -26 21 -46 6 -21 17 -38 24
-38 6 0 19 -9 29 -20 19 -23 23 -40 5 -22 -24 24 -28 11 -9 -25 10 -21 22 -49
26 -63 4 -14 23 -59 42 -100 19 -41 38 -84 43 -95 4 -11 17 -40 28 -65 67
-151 75 -177 48 -167 -7 3 -133 -1 -280 -10 -147 -8 -273 -13 -279 -10 -7 2
-18 22 -26 43 -14 39 -21 56 -135 309 l-63 140 -84 -3 c-179 -6 -761 -40 -766
-45 -3 -3 -13 -41 -23 -84 -22 -89 -38 -145 -74 -258 -14 -44 -31 -102 -39
-130 l-14 -50 -249 -13 c-137 -6 -272 -11 -300 -10 l-50 3 38 125 c22 69 43
134 48 145 5 11 77 229 160 485 84 256 156 474 161 485 15 36 219 656 219 666
0 6 6 25 14 42 33 75 145 428 139 443 -3 9 -12 13 -22 9 -12 -5 -13 -3 -4 6
14 14 6 39 -20 58 -18 12 -18 15 -3 23 19 11 36 3 36 -17 0 -12 5 -12 26 -3
15 7 21 14 15 16 -6 2 -11 12 -11 22 0 15 12 19 80 25 l80 7 0 54 0 54 200 0
200 0 0 -40z m-2030 -75 c0 -25 -4 -45 -10 -45 -11 0 -14 73 -3 83 11 12 13 8
13 -38z m2790 -58 c0 -8 -9 -22 -20 -32 -20 -18 -20 -17 -20 13 0 25 4 32 20
32 11 0 20 -6 20 -13z m1560 -87 c0 -11 -2 -20 -4 -20 -2 0 -6 9 -9 20 -3 11
-1 20 4 20 5 0 9 -9 9 -20z m-4343 -202 c-2 -13 -4 -3 -4 22 0 25 2 35 4 23 2
-13 2 -33 0 -45z m-2489 2 c-7 -10 -14 -17 -17 -15 -4 4 18 35 25 35 2 0 -1
-9 -8 -20z m1909 -42 c-3 -8 -6 -5 -6 6 -1 11 2 17 5 13 3 -3 4 -12 1 -19z
m590 -80 c-3 -8 -6 -5 -6 6 -1 11 2 17 5 13 3 -3 4 -12 1 -19z m-2061 -134
c-4 -17 -20 -45 -38 -62 -39 -41 -28 -56 13 -16 19 18 32 25 37 18 4 -6 14
-14 22 -17 9 -3 4 -6 -12 -6 -16 -1 -28 -6 -28 -12 0 -6 -14 -24 -31 -40 -22
-21 -38 -28 -53 -24 -16 5 -18 4 -7 -4 22 -15 -30 -25 -87 -17 -26 4 -69 10
-97 13 -50 7 -50 7 -15 14 l35 6 -32 2 c-18 0 -33 5 -33 10 0 5 -16 26 -35 47
-19 20 -32 41 -28 48 5 7 9 5 11 -6 2 -10 7 -18 12 -18 11 0 -15 73 -28 78 -6
2 -5 13 2 30 7 15 18 38 24 52 10 23 11 21 12 -20 1 -55 29 -120 64 -147 14
-11 46 -24 71 -27 112 -17 212 71 217 191 l2 48 3 -55 c3 -30 2 -69 -1 -86z
m1498 -66 c3 -73 11 -239 17 -368 12 -248 11 -274 -9 -276 -23 -3 -24 -4 -12
-19 11 -13 15 -13 21 -3 7 10 9 10 9 -1 0 -7 -11 -24 -25 -37 -14 -12 -22 -29
-19 -37 8 -21 -14 -33 -104 -55 -45 -12 -110 -34 -145 -51 -122 -57 -218 -77
-439 -88 -70 -3 -125 -10 -122 -15 3 -4 -55 -9 -128 -9 -73 -1 -146 -2 -163
-4 -46 -3 -290 -16 -390 -21 -49 -2 -112 -6 -140 -8 -27 -2 -107 -6 -176 -10
-70 -3 -144 -8 -165 -10 -22 -3 -113 -8 -204 -11 -192 -7 -258 -12 -271 -20
-5 -4 -9 2 -10 12 0 16 -1 16 -8 -2 -5 -11 -7 -23 -5 -27 3 -4 0 -9 -5 -13 -6
-3 -8 -12 -4 -20 6 -17 -5 -19 -26 -6 -10 6 -10 13 -2 28 13 26 12 134 -2 151
-6 8 -10 28 -9 46 2 28 -40 136 -53 136 -2 0 -2 -15 0 -32 4 -26 2 -24 -8 9
-6 23 -25 53 -40 67 -15 14 -25 31 -22 36 3 6 0 10 -8 10 -8 0 -37 21 -64 48
-27 27 -67 54 -91 61 -23 8 -42 18 -42 23 0 4 -9 8 -19 8 -11 0 -22 4 -26 9
-3 5 -76 9 -163 9 -86 0 -165 3 -174 7 -11 4 -18 3 -18 -4 0 -6 -8 -11 -18
-11 -10 0 -35 -9 -57 -20 -22 -11 -48 -20 -58 -20 -10 0 -24 -6 -32 -12 -24
-23 -55 -48 -60 -48 -3 0 -19 -15 -35 -32 -23 -26 -29 -29 -30 -15 0 10 7 20
15 23 8 4 15 10 15 15 0 15 70 84 130 129 61 46 53 52 -19 14 -47 -26 -116
-85 -153 -132 -25 -31 -98 -162 -98 -175 0 -5 -3 -7 -7 -4 -3 4 -12 -1 -19
-11 -27 -35 -15 33 18 104 99 216 289 345 527 360 173 12 319 -42 455 -168 80
-73 115 -119 160 -205 l27 -52 67 5 c37 3 222 14 412 25 190 10 453 26 585 34
132 8 371 21 530 30 581 31 652 35 748 41 l97 7 0 56 c0 31 -7 182 -15 336
-19 362 -19 333 8 338 68 13 64 20 71 -125z m-147 116 c-3 -3 -12 -4 -19 -1
-8 3 -5 6 6 6 11 1 17 -2 13 -5z m-429 -21 c-21 -2 -55 -2 -75 0 -21 2 -4 4
37 4 41 0 58 -2 38 -4z m-358 -13 c-8 -5 -33 -9 -55 -8 l-40 1 45 7 c25 4 50
8 55 8 6 1 3 -3 -5 -8z m97 4 c-3 -3 -12 -4 -19 -1 -8 3 -5 6 6 6 11 1 17 -2
13 -5z m80 0 c-3 -3 -12 -4 -19 -1 -8 3 -5 6 6 6 11 1 17 -2 13 -5z m-389 -21
c-21 -2 -57 -2 -80 0 -24 2 -7 4 37 4 44 0 63 -2 43 -4z m-738 -13 c0 -5 -2
-10 -4 -10 -3 0 -8 5 -11 10 -3 6 -1 10 4 10 6 0 11 -4 11 -10z m-133 -72 c-3
-7 -5 -2 -5 12 0 14 2 19 5 13 2 -7 2 -19 0 -25z m2590 -220 c-2 -13 -4 -3 -4
22 0 25 2 35 4 23 2 -13 2 -33 0 -45z m7283 -304 c0 -14 -4 -22 -10 -19 -5 3
-10 17 -10 31 0 14 4 22 10 19 6 -3 10 -17 10 -31z m-2889 -258 c5 3 8 -18 7
-48 -1 -50 -2 -51 -5 -10 -2 23 -8 42 -14 42 -5 0 -9 8 -8 18 0 10 3 12 6 4 2
-6 9 -10 14 -6z m-7777 -67 c17 -50 17 -111 0 -217 -6 -37 -120 -162 -148
-162 -9 0 -16 -4 -16 -10 0 -32 85 8 142 66 24 24 46 44 51 44 5 0 -2 -19 -14
-42 -12 -24 -25 -50 -29 -58 -4 -8 -19 -21 -33 -28 -15 -7 -27 -20 -27 -28 0
-9 -13 -21 -30 -27 -16 -6 -30 -15 -30 -19 0 -4 -20 -5 -44 -2 -30 4 -58 1
-83 -8 -32 -13 -50 -13 -113 -3 -47 7 -74 16 -72 23 1 7 -6 12 -17 12 -10 0
-26 11 -35 25 -10 14 -28 30 -42 35 -13 5 -30 22 -36 37 -16 38 -18 39 -27 25
-4 -6 -6 16 -5 51 1 34 -3 73 -8 87 -13 35 1 190 15 165 6 -11 11 -33 13 -50
1 -16 4 -37 7 -45 3 -8 8 -28 12 -45 10 -45 52 -111 88 -139 35 -27 131 -56
183 -56 17 0 56 8 85 17 69 22 168 117 187 179 14 50 16 190 2 199 -5 3 -10
13 -10 21 0 28 18 4 34 -47z m2858 -185 c15 -218 28 -484 28 -561 0 -72 -2
-81 -17 -79 -22 4 -63 -14 -63 -26 0 -5 9 -6 20 -3 14 5 20 2 20 -9 0 -9 -9
-16 -20 -16 -21 0 -29 -20 -7 -20 7 0 5 -4 -4 -10 -9 -5 -64 -16 -122 -25 -59
-8 -123 -21 -143 -30 -20 -8 -47 -15 -60 -15 -12 0 -26 -4 -29 -10 -3 -5 -27
-10 -53 -10 -26 0 -63 -4 -82 -9 -19 -6 -62 -11 -95 -13 l-59 -4 -34 -65 c-41
-79 -73 -113 -137 -147 -72 -38 -178 -38 -256 1 -81 39 -133 104 -155 192 -4
16 -13 36 -21 43 -24 25 3 144 45 202 38 50 60 68 120 96 60 27 144 34 209 15
50 -14 135 -78 166 -126 26 -42 5 -40 372 -20 143 8 275 15 293 15 l34 0 -6
58 c-3 31 -10 156 -16 277 -5 121 -12 259 -16 307 l-5 87 33 4 c18 2 38 3 43
2 6 -1 13 -46 17 -101z m-225 89 c-20 -2 -52 -2 -70 0 -17 2 0 4 38 4 39 0 53
-2 32 -4z m-234 -10 c-18 -2 -48 -2 -65 0 -18 2 -4 4 32 4 36 0 50 -2 33 -4z
m-144 -7 c-2 -2 -60 -6 -129 -8 -69 -3 -100 -2 -70 2 61 7 206 12 199 6z
m1168 -58 c-2 -13 -4 -3 -4 22 0 25 2 35 4 23 2 -13 2 -33 0 -45z m-1659 25
c-10 -2 -28 -2 -40 0 -13 2 -5 4 17 4 22 1 32 -1 23 -4z m-119 -7 c-2 -2 -62
-6 -134 -9 -71 -3 -110 -2 -85 3 47 7 226 13 219 6z m-314 -16 c-16 -4 -66 -7
-110 -7 l-80 1 85 6 c47 3 96 7 110 7 22 1 21 0 -5 -7z m-267 -17 c-27 -2 -69
-2 -95 0 -27 2 -5 3 47 3 52 0 74 -1 48 -3z m-205 -10 c-29 -2 -77 -2 -105 0
-29 2 -6 3 52 3 58 0 81 -1 53 -3z m-210 -10 c-13 -2 -33 -2 -45 0 -13 2 -3 4
22 4 25 0 35 -2 23 -4z m-240 -10 c-13 -2 -35 -2 -50 0 -16 2 -5 4 22 4 28 0
40 -2 28 -4z m3047 -413 c0 -22 -4 -40 -10 -40 -5 0 -10 18 -10 40 0 22 5 40
10 40 6 0 10 -18 10 -40z m6013 -50 c3 -11 3 -20 1 -20 -2 0 -8 9 -14 20 -6
11 -7 20 -2 20 6 0 12 -9 15 -20z m-2333 -190 c0 -5 -4 -10 -10 -10 -5 0 -10
5 -10 10 0 6 5 10 10 10 6 0 10 -4 10 -10z m-4227 -299 c4 -82 10 -195 13
-250 l7 -101 -31 0 c-18 0 -32 -4 -32 -10 0 -5 5 -10 10 -10 23 0 7 -20 -22
-29 -18 -5 -25 -10 -15 -10 25 -1 21 -20 -5 -26 -13 -3 -67 -11 -122 -19 -57
-8 -102 -20 -107 -27 -4 -8 -11 -10 -15 -7 -3 4 -23 1 -43 -7 -62 -24 -163
-38 -352 -50 -29 -2 -119 -8 -199 -14 -80 -5 -209 -13 -288 -17 -96 -4 -158
-12 -188 -23 -24 -10 -42 -20 -38 -23 3 -3 -4 -9 -15 -13 -11 -3 -50 -42 -87
-86 -49 -61 -65 -86 -61 -102 3 -12 11 -42 17 -67 14 -54 -1 -148 -32 -197
-33 -55 -107 -112 -166 -129 -100 -29 -199 -5 -279 68 -54 51 -76 91 -96 184
-15 64 -15 76 -1 126 43 149 206 232 368 187 l38 -11 84 90 c90 96 132 123
237 147 62 14 110 18 802 55 532 29 550 31 549 53 -11 126 -25 441 -20 452 3
10 19 15 44 15 l39 0 6 -149z m4954 -363 c-2 -13 -4 -3 -4 22 0 25 2 35 4 23
2 -13 2 -33 0 -45z m-4913 -260 c14 -190 43 -279 137 -420 64 -97 56 -106 -18
-20 -135 158 -193 292 -205 471 -3 41 -1 46 22 52 57 16 57 16 64 -83z m2979
-5 c-13 -2 -33 -2 -45 0 -13 2 -3 4 22 4 25 0 35 -2 23 -4z m640 0 c-13 -2
-33 -2 -45 0 -13 2 -3 4 22 4 25 0 35 -2 23 -4z m1581 -118 c-4 -8 -10 -15
-15 -15 -4 0 -6 7 -3 15 4 8 10 15 15 15 4 0 6 -7 3 -15z m-3084 -185 c0 -5
-4 -10 -9 -10 -6 0 -13 5 -16 10 -3 6 1 10 9 10 9 0 16 -4 16 -10z m2815 -30
c3 -5 1 -10 -4 -10 -6 0 -11 5 -11 10 0 6 2 10 4 10 3 0 8 -4 11 -10z m-75
-74 c0 -3 -4 -8 -10 -11 -5 -3 -10 -1 -10 4 0 6 5 11 10 11 6 0 10 -2 10 -4z
m-406 -311 c6 -103 21 -418 46 -935 6 -124 16 -242 21 -263 10 -39 78 -113
148 -162 35 -24 38 -24 85 -10 39 12 62 13 114 4 81 -12 113 -30 178 -95 110
-110 113 -276 8 -393 -63 -70 -126 -95 -225 -89 -66 4 -86 10 -134 39 -63 38
-112 103 -146 192 -20 52 -21 63 -10 112 8 35 19 59 32 65 10 6 19 15 19 20 0
5 -43 52 -95 104 -58 58 -95 103 -95 116 0 11 -4 20 -8 20 -13 0 -31 84 -41
190 -9 86 -13 141 -26 405 -2 44 -7 202 -10 350 -6 265 0 359 25 388 6 6 20
27 31 45 15 25 24 32 39 27 13 -4 20 -2 21 7 0 7 4 4 8 -7 5 -11 11 -69 15
-130z m-197 3 c-2 -18 -4 -6 -4 27 0 33 2 48 4 33 2 -15 2 -42 0 -60z m-518
25 l29 -28 11 -197 c6 -108 11 -233 11 -277 l0 -80 53 -35 c68 -43 111 -88
139 -146 29 -60 30 -166 1 -231 -81 -181 -306 -231 -456 -99 -41 35 -74 78
-79 101 -2 8 -9 18 -15 24 -7 5 -16 42 -19 81 -6 63 -4 78 18 126 31 68 83
127 127 145 l34 14 -6 87 c-4 48 -9 173 -11 277 l-5 190 14 -225 c8 -124 15
-245 17 -269 2 -25 8 -46 14 -48 8 -3 11 68 11 246 0 239 1 250 22 292 20 39
49 79 57 79 1 0 16 -12 33 -27z m-1245 -84 c14 -131 45 -703 71 -1309 9 -190
20 -424 25 -520 10 -174 12 -284 5 -265 -4 12 -25 312 -31 445 -7 159 -13 253
-19 295 -3 22 -14 231 -25 465 -20 444 -38 809 -44 920 -4 75 9 52 18 -31z
m247 54 c8 -9 28 -22 45 -29 43 -18 51 -58 64 -324 6 -118 15 -300 20 -405 6
-104 14 -289 20 -410 58 -1271 55 -1222 83 -1231 86 -26 216 -111 289 -188 43
-46 112 -154 131 -206 34 -96 44 -274 15 -291 -6 -4 -8 -20 -5 -39 6 -28 5
-30 -9 -16 -11 12 -15 36 -15 86 0 38 -4 72 -10 76 -5 3 -7 14 -4 23 3 10 -4
28 -15 42 -11 13 -23 29 -28 34 -15 18 -32 77 -25 88 4 6 -2 8 -15 5 -14 -4
-22 -1 -22 6 0 7 -10 23 -22 36 -13 14 -23 28 -23 33 0 4 -5 11 -11 15 -6 4
-13 15 -17 25 -3 9 -14 17 -22 17 -9 0 -23 6 -31 14 -7 8 -24 12 -36 10 -20
-4 -21 -3 -4 4 16 7 17 10 5 18 -13 8 -73 32 -94 37 -5 2 -20 9 -33 15 -13 8
-36 10 -57 6 -22 -4 -41 -2 -49 5 -9 8 -16 8 -20 2 -3 -5 -52 -10 -109 -10
-128 0 -137 -1 -137 -17 0 -8 -21 -15 -54 -19 -34 -5 -61 -14 -72 -26 -9 -10
-28 -19 -41 -19 -13 0 -23 -6 -23 -15 0 -7 -6 -18 -14 -22 -8 -4 -22 -22 -30
-38 -11 -21 -16 -25 -16 -12 0 11 8 33 18 49 23 41 109 128 125 128 8 0 24 11
37 25 20 21 21 25 7 25 -42 0 -163 -99 -215 -175 -15 -22 -30 -41 -34 -43 -5
-2 -8 -9 -8 -15 0 -7 -9 -29 -20 -49 -10 -20 -28 -71 -39 -113 -24 -93 -36
-110 -45 -62 -14 75 46 241 124 341 59 77 165 158 252 193 38 15 41 15 69 -6
16 -12 34 -19 40 -15 8 4 7 10 -2 16 -11 7 -11 11 -1 15 16 6 15 115 -3 498
-8 165 -19 417 -25 560 -6 143 -15 307 -21 365 -5 58 -12 272 -15 476 l-6 371
27 47 c15 25 33 46 40 46 7 0 24 13 37 29 27 35 31 36 49 14z m-2142 -443 c12
-223 25 -502 31 -620 10 -225 20 -343 27 -323 2 7 10 10 18 7 32 -13 36 128
14 498 -5 102 -11 294 -12 426 -2 266 0 277 62 314 20 12 44 30 53 42 16 20
17 20 37 2 11 -10 23 -27 26 -37 4 -10 9 -18 13 -18 23 4 30 -7 36 -53 11 -86
36 -614 43 -883 7 -287 -1 -358 -51 -462 -62 -128 -119 -194 -431 -507 -227
-227 -300 -278 -435 -305 -77 -15 -234 -31 -300 -32 -30 0 -154 -7 -275 -14
-276 -19 -563 -34 -679 -38 -62 -1 -91 -6 -94 -15 -3 -10 -8 -8 -18 5 -8 11
-13 13 -14 6 0 -7 -4 -13 -10 -13 -5 0 -10 24 -10 53 0 28 -7 65 -15 80 -8 15
-12 34 -9 42 7 17 -25 105 -37 105 -5 0 -9 6 -9 14 0 7 -10 16 -21 19 -18 5
-20 11 -15 33 6 24 5 26 -8 15 -12 -10 -17 -8 -27 11 -16 31 -45 58 -62 58 -7
0 -20 11 -27 25 -8 15 -20 23 -27 20 -8 -2 -12 -1 -8 4 3 5 -19 17 -47 26 -29
10 -63 24 -76 32 -35 22 -331 27 -397 7 -65 -21 -155 -64 -155 -75 0 -5 -11
-14 -25 -19 -14 -5 -28 -17 -31 -25 -6 -15 -24 -21 -24 -7 0 24 186 182 215
182 8 0 17 5 21 11 11 18 -56 0 -98 -27 -21 -13 -41 -24 -45 -24 -11 0 -114
-101 -133 -130 -8 -12 -22 -32 -31 -44 -15 -20 -40 -72 -88 -179 -14 -31 -21
-68 -21 -107 0 -32 -4 -62 -10 -65 -16 -10 -12 114 6 196 26 117 102 249 190
330 87 80 239 145 369 155 124 11 314 -39 396 -103 108 -83 249 -258 249 -308
0 -20 21 -19 470 5 201 11 453 24 560 29 214 11 274 24 350 75 44 29 463 449
534 535 43 51 73 113 81 167 4 22 -8 321 -24 666 -34 698 -33 653 -27 647 3
-3 14 -187 25 -409z m1116 350 c3 -11 11 -19 18 -17 20 4 31 -141 57 -753 6
-135 13 -268 16 -297 5 -52 6 -52 57 -76 63 -29 166 -126 196 -185 29 -56 43
-136 35 -195 -7 -54 -24 -54 -25 1 -1 37 -26 148 -28 125 -1 -13 -41 -5 -41 8
0 5 7 6 15 3 33 -13 9 33 -26 52 -16 8 -29 20 -29 26 0 16 -26 34 -98 69 -61
30 -67 31 -160 25 -122 -7 -155 -14 -148 -33 3 -8 1 -11 -4 -8 -14 9 -69 -26
-76 -47 -3 -10 -10 -18 -15 -18 -11 0 18 49 41 68 39 32 100 72 117 75 10 2
29 9 43 14 l25 11 -25 6 -25 7 -3 187 c-3 270 -8 406 -16 497 -6 61 -5 76 4
65 9 -13 10 -12 6 5 -5 19 -10 213 -7 281 1 35 56 124 76 124 8 0 16 -9 20
-20z m2552 -2 c-3 -8 -6 -5 -6 6 -1 11 2 17 5 13 3 -3 4 -12 1 -19z m0 -95
c-3 -10 -5 -4 -5 12 0 17 2 24 5 18 2 -7 2 -21 0 -30z m0 -65 c-3 -8 -6 -5 -6
6 -1 11 2 17 5 13 3 -3 4 -12 1 -19z m-2677 -528 c6 -118 12 -260 15 -315 4
-99 4 -99 -5 -25 -10 83 -28 438 -34 680 l-5 155 9 -140 c5 -77 14 -237 20
-355z m2694 368 c4 -37 2 -58 -4 -58 -6 0 -10 27 -10 62 0 74 5 73 14 -4z m24
-308 c4 -80 5 -161 1 -180 -6 -34 -7 -33 -10 15 -1 28 -3 68 -4 90 -1 22 -5
99 -8 170 -5 92 -4 118 3 90 5 -22 13 -105 18 -185z m-1 -277 c-3 -10 -5 -2
-5 17 0 19 2 27 5 18 2 -10 2 -26 0 -35z m20 -175 c-2 -13 -4 -3 -4 22 0 25 2
35 4 23 2 -13 2 -33 0 -45z m-2717 -73 c-6 -7 -22 -16 -35 -19 -14 -4 -25 -11
-25 -16 0 -6 -6 -10 -12 -10 -23 -1 -88 -67 -122 -125 -37 -60 -61 -167 -54
-231 2 -21 0 -33 -6 -31 -7 2 -11 42 -10 103 0 87 3 106 28 158 33 70 106 144
169 174 25 12 49 27 53 33 5 8 10 7 16 -5 6 -11 6 -22 -2 -31z m298 -330 c5
-61 -6 -103 -40 -141 -40 -45 -62 -57 -123 -65 l-50 -6 50 -2 c42 -1 60 5 104
33 30 18 60 44 67 57 12 22 13 22 13 4 0 -24 -21 -55 -38 -55 -11 0 -15 -13
-12 -37 1 -7 -7 -9 -20 -6 -18 5 -21 3 -16 -12 6 -15 3 -17 -22 -13 -17 2 -28
1 -25 -4 7 -10 -98 -10 -154 1 -24 5 -49 14 -55 21 -9 10 -9 11 2 5 9 -5 12
-4 7 3 -4 6 -14 8 -23 5 -13 -5 -15 -1 -11 19 4 21 2 25 -16 21 -14 -3 -17 -2
-9 4 10 7 9 15 -2 36 -14 28 -19 60 -17 115 3 47 16 39 29 -19 15 -60 54 -116
91 -131 15 -5 53 -8 85 -5 98 9 159 73 161 169 1 57 20 59 24 3z m139 13 c-3
-8 -6 -5 -6 6 -1 11 2 17 5 13 3 -3 4 -12 1 -19z m-4320 -800 c-3 -8 -6 -5 -6
6 -1 11 2 17 5 13 3 -3 4 -12 1 -19z m621 -55 c-3 -46 -12 -94 -22 -115 -21
-45 -101 -127 -136 -140 -19 -7 -21 -11 -10 -18 19 -11 100 32 146 78 l36 37
-6 -30 c-4 -17 -24 -46 -49 -67 -23 -21 -38 -38 -33 -38 5 0 -2 -8 -15 -18
-64 -49 -313 -71 -347 -31 -9 11 -27 19 -40 19 -12 0 -25 7 -28 15 -4 8 -11
15 -17 15 -21 0 -67 65 -84 119 -21 71 -27 111 -25 169 3 48 29 42 37 -9 10
-58 53 -136 93 -169 71 -58 204 -73 298 -34 92 38 174 155 174 247 0 37 4 47
16 47 14 0 16 -11 12 -77z m-621 -195 c-3 -8 -6 -5 -6 6 -1 11 2 17 5 13 3 -3
4 -12 1 -19z m4594 -141 c-10 -9 -11 -8 -5 6 3 10 9 15 12 12 3 -3 0 -11 -7
-18z m197 -327 c24 -89 61 -139 126 -172 52 -27 171 -36 229 -18 93 29 179
120 201 213 10 42 36 35 36 -11 0 -75 -79 -187 -165 -236 -27 -15 -27 -16 -5
-10 33 9 128 53 115 54 -5 0 4 12 21 28 17 15 37 38 44 51 7 13 16 19 21 14 5
-5 -2 -31 -17 -61 -14 -29 -23 -56 -20 -61 3 -5 -1 -14 -9 -21 -12 -10 -15
-10 -15 1 -1 11 -3 10 -13 -2 -7 -8 -21 -19 -32 -23 -15 -5 -16 -9 -6 -15 11
-7 9 -11 -8 -20 -11 -7 -21 -18 -21 -25 0 -11 -8 -12 -36 -6 -27 6 -41 5 -51
-6 -17 -16 -233 -21 -233 -4 0 5 -18 15 -40 21 -22 7 -40 18 -40 24 0 7 -8 16
-17 19 -38 15 -63 31 -63 43 0 6 -6 18 -12 25 -7 7 -14 20 -16 28 -1 8 -9 29
-16 45 -29 64 -35 95 -20 95 19 0 18 27 -3 38 -16 9 -16 11 0 27 9 9 17 25 17
35 0 32 25 29 32 -4 3 -17 11 -47 16 -66z"/><path d="M14939 14504 c-34 -19 -41 -22 -71 -28 -20 -5 -28 -13 -28 -29 0 -16
-3 -18 -9 -8 -6 9 -11 10 -15 2 -4 -6 -15 -11 -25 -11 -24 0 -47 -26 -29 -33
19 -7 -2 -39 -36 -55 -23 -12 -25 -16 -14 -29 8 -10 14 -11 16 -4 2 6 10 11
18 11 16 0 7 -31 -13 -43 -16 -10 -17 -25 0 -41 12 -13 41 -10 33 3 -3 4 11
22 29 40 19 18 35 39 35 47 0 19 16 18 24 -1 3 -8 1 -15 -4 -15 -6 0 -10 -9
-10 -20 0 -11 -4 -20 -10 -20 -5 0 -10 -9 -10 -20 0 -12 -7 -35 -16 -53 -26
-49 -14 -182 22 -239 44 -72 74 -96 142 -119 50 -17 78 -20 123 -15 97 10 155
47 264 171 l26 30 -4 -30 c-2 -16 -8 -38 -12 -49 -15 -35 33 2 54 42 11 20 20
31 21 25 0 -7 9 -13 20 -13 14 0 20 7 20 24 0 13 9 34 20 47 l19 24 2 -50 2
-50 7 50 c11 71 11 156 0 130 -7 -16 -9 -13 -9 16 -1 20 -8 50 -16 65 -8 16
-12 37 -9 47 3 11 0 17 -10 18 -29 3 -34 4 -42 12 -4 4 -2 7 5 7 8 0 -3 18
-23 40 -20 22 -36 45 -36 50 0 6 -5 10 -11 10 -6 0 -16 6 -24 13 -37 35 -58
48 -72 43 -8 -3 -23 -1 -33 4 -31 17 -284 20 -311 4z m-132 -126 c-3 -8 -6 -5
-6 6 -1 11 2 17 5 13 3 -3 4 -12 1 -19z"/><path d="M14721 14204 c0 -11 3 -14 6 -6 3 7 2 16 -1 19 -3 4 -6 -2 -5 -13z"/><path d="M15530 13830 c0 -5 5 -10 10 -10 6 0 10 5 10 10 0 6 -4 10 -10 10 -5
0 -10 -4 -10 -10z"/><path d="M15570 13829 c0 -5 5 -7 10 -4 6 3 10 8 10 11 0 2 -4 4 -10 4 -5 0
-10 -5 -10 -11z"/><path d="M15419 13731 c-20 -35 -14 -47 31 -55 l35 -7 -25 21 c-14 12 -19 19
-12 15 6 -3 12 -1 12 4 0 6 -4 11 -9 11 -5 0 -11 9 -13 20 -3 18 -5 17 -19 -9z"/><path d="M15517 13743 c3 -7 6 -13 8 -13 2 0 5 6 8 13 3 8 -1 14 -8 14 -7 0
-11 -6 -8 -14z"/><path d="M19790 13804 c-92 -27 -164 -93 -212 -192 -36 -75 -43 -138 -23 -207
37 -131 118 -195 256 -203 66 -4 82 -1 131 22 34 16 82 53 122 93 69 69 89 77
61 23 -23 -44 -14 -47 21 -8 41 46 64 84 64 106 0 10 5 23 11 29 7 7 8 20 3
34 -4 13 -7 32 -5 42 1 10 -5 29 -13 42 -9 13 -16 33 -16 44 0 11 -9 26 -21
34 -13 10 -16 16 -8 19 12 4 -67 73 -83 73 -5 0 -12 6 -17 13 -19 32 -202 56
-271 36z m341 -211 c23 -54 23 -59 4 -43 -8 7 -15 19 -15 27 0 8 -7 28 -16 45
-9 17 -11 27 -4 23 6 -4 20 -27 31 -52z"/><path d="M19351 13664 c0 -11 3 -14 6 -6 3 7 2 16 -1 19 -3 4 -6 -2 -5 -13z"/><path d="M19361 13304 c0 -11 3 -14 6 -6 3 7 2 16 -1 19 -3 4 -6 -2 -5 -13z"/><path d="M20010 13210 c-8 -5 -12 -12 -9 -15 4 -3 12 1 19 10 14 17 11 19 -10
5z"/><path d="M19950 13178 c-14 -6 -43 -15 -65 -19 -32 -7 -28 -7 20 -3 33 3 67
11 75 19 17 17 6 18 -30 3z"/><path d="M13000 12882 c-78 -39 -107 -148 -55 -211 56 -66 145 -62 210 11 27
29 35 47 35 77 0 61 -17 96 -59 119 -46 26 -84 27 -131 4z"/><path d="M13402 12130 c0 -19 2 -27 5 -17 2 9 2 25 0 35 -3 9 -5 1 -5 -18z"/><path d="M14155 12083 c-41 -9 -67 -28 -91 -69 -44 -75 -23 -152 50 -185 56
-24 107 -16 151 25 76 72 58 200 -32 225 -39 11 -45 12 -78 4z"/><path d="M13411 11774 c0 -11 3 -14 6 -6 3 7 2 16 -1 19 -3 4 -6 -2 -5 -13z"/><path d="M13423 11640 c0 -25 2 -35 4 -22 2 12 2 32 0 45 -2 12 -4 2 -4 -23z"/><path d="M13433 11485 c0 -22 2 -30 4 -17 2 12 2 30 0 40 -3 9 -5 -1 -4 -23z"/><path d="M14122 11305 c0 -16 2 -22 5 -12 2 9 2 23 0 30 -3 6 -5 -1 -5 -18z"/><path d="M15790 10910 c20 -5 39 -5 45 1 5 5 -8 9 -35 8 l-45 -1 35 -8z"/><path d="M15870 10900 c20 -13 50 -13 50 0 0 6 -15 10 -32 10 -25 0 -29 -3
-18 -10z"/><path d="M15987 10903 c-4 -3 -7 -11 -7 -17 0 -6 5 -5 12 2 6 6 9 14 7 17 -3
3 -9 2 -12 -2z"/><path d="M15473 10873 c15 -2 37 -2 50 0 12 2 0 4 -28 4 -27 0 -38 -2 -22 -4z"/><path d="M14450 10856 c0 -2 7 -6 15 -10 8 -3 15 -1 15 4 0 6 -7 10 -15 10 -8
0 -15 -2 -15 -4z"/><path d="M19745 10821 c-36 -15 -75 -63 -86 -104 -9 -33 -8 -47 7 -80 45 -99
174 -102 235 -5 29 47 22 129 -13 165 -28 28 -105 41 -143 24z"/><path d="M13883 10813 c9 -2 23 -2 30 0 6 3 -1 5 -18 5 -16 0 -22 -2 -12 -5z"/><path d="M13803 10803 c9 -2 23 -2 30 0 6 3 -1 5 -18 5 -16 0 -22 -2 -12 -5z"/><path d="M12905 10610 c-3 -5 -1 -10 4 -10 6 0 11 5 11 10 0 6 -2 10 -4 10 -3
0 -8 -4 -11 -10z"/><path d="M17572 10210 c-2 -42 7 -80 19 -80 5 0 9 7 9 15 0 8 -4 15 -9 15 -6
0 -12 19 -14 43 -3 38 -4 39 -5 7z"/><path d="M13152 9840 c0 -14 2 -19 5 -12 2 6 2 18 0 25 -3 6 -5 1 -5 -13z"/><path d="M18936 9690 c-112 -34 -131 -194 -29 -248 55 -30 149 2 178 59 20 37
19 119 -1 147 -31 45 -86 60 -148 42z"/><path d="M13193 9000 c0 -25 2 -35 4 -22 2 12 2 32 0 45 -2 12 -4 2 -4 -23z"/><path d="M17666 8923 c4 -65 8 -120 10 -122 2 -2 4 50 4 117 0 75 -4 122 -10
122 -7 0 -8 -41 -4 -117z"/><path d="M21064 8995 c-89 -27 -156 -79 -190 -147 -34 -67 -44 -109 -44 -181
0 -178 116 -286 293 -275 121 8 200 61 257 173 24 48 30 72 31 129 l1 71 13
-40 c30 -91 4 -197 -68 -274 -33 -35 -28 -34 36 9 20 14 37 30 37 36 0 6 9 23
21 38 11 14 18 26 15 26 -3 0 3 17 14 37 11 21 20 55 20 77 0 44 -38 166 -51
166 -5 0 -9 6 -9 14 0 22 -64 83 -116 110 -87 45 -178 56 -260 31z"/><path d="M17680 8600 c0 -29 4 -40 15 -40 11 0 15 11 15 40 0 29 -4 40 -15 40
-11 0 -15 -11 -15 -40z"/><path d="M13223 8375 c0 -22 2 -30 4 -17 2 12 2 30 0 40 -3 9 -5 -1 -4 -23z"/><path d="M21175 8350 c-4 -6 6 -10 22 -10 22 0 25 2 13 10 -19 12 -27 12 -35
0z"/><path d="M13231 8224 c0 -11 3 -14 6 -6 3 7 2 16 -1 19 -3 4 -6 -2 -5 -13z"/><path d="M13283 8115 c0 -22 2 -30 4 -17 2 12 2 30 0 40 -3 9 -5 -1 -4 -23z"/><path d="M13242 8025 c0 -16 2 -22 5 -12 2 9 2 23 0 30 -3 6 -5 -1 -5 -18z"/><path d="M13241 7974 c0 -11 3 -14 6 -6 3 7 2 16 -1 19 -3 4 -6 -2 -5 -13z"/><path d="M13252 7820 c0 -14 2 -19 5 -12 2 6 2 18 0 25 -3 6 -5 1 -5 -13z"/><path d="M19701 7791 c-7 -5 -21 -6 -31 -4 -19 5 -70 -26 -102 -62 -69 -76
-63 -223 12 -290 33 -30 135 -33 188 -6 62 31 95 87 96 161 1 52 2 56 13 37
27 -48 4 -150 -41 -179 -7 -5 -5 -8 6 -8 10 0 25 12 35 28 10 15 23 33 30 40
7 7 13 25 13 39 0 19 4 24 16 19 14 -6 16 0 11 36 -3 23 -11 44 -16 46 -6 2
-11 10 -11 17 0 7 -6 16 -12 19 -7 3 -2 3 12 -1 23 -5 24 -5 10 13 -19 24 -63
64 -72 65 -19 3 -24 5 -45 17 -29 16 -95 24 -112 13z"/><path d="M13251 7744 c0 -11 3 -14 6 -6 3 7 2 16 -1 19 -3 4 -6 -2 -5 -13z"/><path d="M17760 7720 c0 -29 4 -40 15 -40 11 0 15 11 15 40 0 29 -4 40 -15 40
-11 0 -15 -11 -15 -40z"/><path d="M19410 7701 c0 -5 7 -11 14 -14 10 -4 13 -1 9 9 -6 15 -23 19 -23 5z"/><path d="M17923 7640 c0 -25 2 -35 4 -22 2 12 2 32 0 45 -2 12 -4 2 -4 -23z"/><path d="M17760 7520 c0 -64 3 -80 15 -80 8 0 15 8 15 19 0 10 3 46 6 80 7 58
6 61 -15 61 -20 0 -21 -5 -21 -80z"/><path d="M13273 7450 c0 -47 2 -66 4 -42 2 23 2 61 0 85 -2 23 -4 4 -4 -43z"/><path d="M17753 7160 c0 -25 2 -35 4 -22 2 12 2 32 0 45 -2 12 -4 2 -4 -23z"/><path d="M13281 7104 c0 -11 3 -14 6 -6 3 7 2 16 -1 19 -3 4 -6 -2 -5 -13z"/><path d="M13293 6990 c0 -30 2 -43 4 -27 2 15 2 39 0 55 -2 15 -4 2 -4 -28z"/><path d="M13301 6894 c0 -11 3 -14 6 -6 3 7 2 16 -1 19 -3 4 -6 -2 -5 -13z"/><path d="M13303 6775 c0 -33 2 -45 4 -27 2 18 2 45 0 60 -2 15 -4 0 -4 -33z"/><path d="M18004 6600 c0 -69 1 -97 3 -62 2 34 2 90 0 125 -2 34 -3 6 -3 -63z"/><path d="M13311 6624 c0 -11 3 -14 6 -6 3 7 2 16 -1 19 -3 4 -6 -2 -5 -13z"/><path d="M17043 6403 c-74 -3 -83 -6 -83 -23 0 -18 7 -20 88 -19 48 0 82 3 75
5 -20 9 -2 34 23 34 13 0 24 -4 24 -9 0 -6 -9 -8 -20 -6 -11 2 -18 0 -15 -5 5
-8 54 -4 64 6 16 16 -41 22 -156 17z"/><path d="M18002 6364 c-2 -42 19 -77 33 -54 3 5 -1 10 -9 10 -10 0 -16 13 -19
43 l-4 42 -1 -41z"/><path d="M17658 6353 c-9 -20 -10 -34 -3 -50 15 -36 23 -27 23 27 1 28 -1 50
-3 50 -2 0 -10 -12 -17 -27z"/><path d="M16716 6321 c7 -8 74 -9 79 -1 2 3 -16 6 -40 6 -24 0 -42 -3 -39 -5z"/><path d="M16858 6313 c7 -3 16 -2 19 1 4 3 -2 6 -13 5 -11 0 -14 -3 -6 -6z"/><path d="M16928 6313 c6 -2 18 -2 25 0 6 3 1 5 -13 5 -14 0 -19 -2 -12 -5z"/><path d="M17600 6250 c20 -13 33 -13 25 0 -3 6 -14 10 -23 10 -15 0 -15 -2 -2
-10z"/><path d="M17738 6233 c7 -3 16 -2 19 1 4 3 -2 6 -13 5 -11 0 -14 -3 -6 -6z"/><path d="M15298 6223 c12 -2 32 -2 45 0 12 2 2 4 -23 4 -25 0 -35 -2 -22 -4z"/><path d="M17581 6217 c-11 -14 -11 -17 0 -17 8 0 3 -9 -11 -20 -17 -13 -35
-18 -55 -15 -16 3 -24 2 -17 -1 19 -9 4 -24 -24 -24 -17 0 -23 4 -18 12 4 7 3
8 -4 4 -7 -4 -12 -22 -12 -41 0 -29 -4 -34 -27 -37 -16 -2 19 -3 77 -2 l105 0
3 37 c2 20 2 55 0 78 -3 38 -5 40 -17 26z"/><path d="M16765 6131 c-6 -11 74 -25 101 -18 11 3 2 5 -18 6 -20 0 -40 6 -43
11 -8 13 -32 13 -40 1z"/><path d="M16560 6120 c0 -13 50 -13 70 0 11 7 4 10 -27 10 -24 0 -43 -4 -43
-10z"/><path d="M16440 6110 c20 -13 40 -13 40 0 0 6 -12 10 -27 10 -22 0 -25 -2 -13
-10z"/><path d="M16760 6100 c0 -5 9 -10 20 -10 11 0 20 5 20 10 0 6 -9 10 -20 10
-11 0 -20 -4 -20 -10z"/><path d="M15975 6090 c-19 -8 -19 -9 3 -9 12 -1 22 4 22 9 0 6 -1 10 -2 9 -2
0 -12 -4 -23 -9z"/><path d="M16658 6093 c12 -2 32 -2 45 0 12 2 2 4 -23 4 -25 0 -35 -2 -22 -4z"/><path d="M20105 4370 c-3 -5 -1 -10 4 -10 6 0 11 5 11 10 0 6 -2 10 -4 10 -3
0 -8 -4 -11 -10z"/><path d="M20130 4230 c0 -5 7 -7 15 -4 8 4 15 8 15 10 0 2 -7 4 -15 4 -8 0
-15 -4 -15 -10z"/><path d="M20043 4191 c-13 -11 -23 -22 -23 -25 0 -13 34 -5 46 12 27 35 13 43
-23 13z"/><path d="M20598 3603 c7 -3 16 -2 19 1 4 3 -2 6 -13 5 -11 0 -14 -3 -6 -6z"/><path d="M20560 3589 c0 -5 5 -7 10 -4 6 3 10 8 10 11 0 2 -4 4 -10 4 -5 0
-10 -5 -10 -11z"/><path d="M20488 3573 c6 -2 18 -2 25 0 6 3 1 5 -13 5 -14 0 -19 -2 -12 -5z"/><path d="M16160 12929 c0 -7 -11 -8 -30 -4 -31 7 -100 -10 -100 -25 0 -4 8
-11 18 -15 15 -6 12 -11 -18 -37 -21 -18 -30 -32 -23 -35 9 -3 7 -18 -8 -56
-48 -121 23 -237 145 -237 73 0 98 11 152 67 l46 46 -6 -39 c-6 -34 -5 -36 5
-16 7 12 20 22 31 22 10 0 18 7 18 17 0 9 3 14 6 10 13 -12 34 23 34 56 0 95
-12 130 -60 177 -49 47 -121 80 -177 80 -18 0 -33 -5 -33 -11z m182 -203 c-6
-10 -20 20 -21 44 0 8 6 4 13 -10 8 -14 12 -29 8 -34z"/><path d="M16005 12869 c-12 -18 3 -22 20 -5 14 14 14 16 1 16 -8 0 -18 -5 -21
-11z"/><path d="M15920 12780 c0 -11 5 -20 10 -20 6 0 10 9 10 20 0 11 -4 20 -10 20
-5 0 -10 -9 -10 -20z"/><path d="M15961 12784 c0 -11 3 -14 6 -6 3 7 2 16 -1 19 -3 4 -6 -2 -5 -13z"/><path d="M16391 12574 c0 -11 3 -14 6 -6 3 7 2 16 -1 19 -3 4 -6 -2 -5 -13z"/><path d="M10590 12570 c0 -5 5 -10 10 -10 6 0 10 5 10 10 0 6 -4 10 -10 10 -5
0 -10 -4 -10 -10z"/><path d="M10465 12530 c-3 -5 -1 -10 4 -10 6 0 11 5 11 10 0 6 -2 10 -4 10 -3
0 -8 -4 -11 -10z"/><path d="M16901 9454 c0 -11 3 -14 6 -6 3 7 2 16 -1 19 -3 4 -6 -2 -5 -13z"/><path d="M16921 9424 c0 -11 3 -14 6 -6 3 7 2 16 -1 19 -3 4 -6 -2 -5 -13z"/><path d="M16903 9355 c0 -27 2 -38 4 -22 2 15 2 37 0 50 -2 12 -4 0 -4 -28z"/><path d="M16912 9250 c0 -19 2 -27 5 -17 2 9 2 25 0 35 -3 9 -5 1 -5 -18z"/><path d="M16912 9170 c0 -19 2 -27 5 -17 2 9 2 25 0 35 -3 9 -5 1 -5 -18z"/><path d="M16922 9003 c2 -75 2 -79 5 -25 2 34 8 62 13 62 15 0 12 20 -5 36
-13 14 -15 6 -13 -73z"/><path d="M16952 8880 c0 -14 2 -19 5 -12 2 6 2 18 0 25 -3 6 -5 1 -5 -13z"/><path d="M16931 8775 c0 -35 1 -37 10 -17 6 15 5 30 -1 40 -7 13 -9 8 -9 -23z"/><path d="M16940 8575 c0 -38 3 -66 6 -62 7 7 7 117 -1 125 -3 3 -5 -25 -5 -63z"/><path d="M16951 8304 c0 -11 3 -14 6 -6 3 7 2 16 -1 19 -3 4 -6 -2 -5 -13z"/><path d="M17033 8040 c0 -25 2 -35 4 -22 2 12 2 32 0 45 -2 12 -4 2 -4 -23z"/><path d="M16980 7772 c0 -62 3 -112 8 -112 9 0 8 207 -1 217 -4 3 -7 -44 -7
-105z"/><path d="M17012 7820 c0 -14 2 -19 5 -12 2 6 2 18 0 25 -3 6 -5 1 -5 -13z"/><path d="M17026 7768 c-3 -13 -5 -39 -5 -58 1 -27 3 -22 9 20 9 58 7 77 -4 38z"/><path d="M17072 7665 c0 -11 4 -31 8 -45 6 -20 8 -21 8 -5 0 11 -4 31 -8 45
-6 20 -8 21 -8 5z"/><path d="M16993 7520 c0 -47 2 -66 4 -42 2 23 2 61 0 85 -2 23 -4 4 -4 -43z"/><path d="M17073 7482 c-1 -37 -1 -37 8 -7 4 16 5 33 1 37 -4 4 -8 -10 -9 -30z"/><path d="M15513 9400 c0 -25 2 -35 4 -22 2 12 2 32 0 45 -2 12 -4 2 -4 -23z"/><path d="M15490 9091 c0 -5 5 -13 10 -16 6 -3 10 -2 10 4 0 5 -4 13 -10 16 -5
3 -10 2 -10 -4z"/><path d="M15560 9025 c0 -8 2 -15 4 -15 2 0 6 7 10 15 3 8 1 15 -4 15 -6 0
-10 -7 -10 -15z"/><path d="M15635 8870 c4 -6 11 -8 16 -5 14 9 11 15 -7 15 -8 0 -12 -5 -9 -10z"/><path d="M15022 8790 c-6 -14 -24 -77 -42 -140 -17 -63 -45 -162 -62 -220 -40
-136 -68 -242 -68 -258 0 -13 21 -12 31 2 4 5 13 5 20 0 16 -10 409 -12 409
-2 0 5 -84 205 -120 283 -5 11 -39 90 -75 175 -85 198 -81 191 -93 160z"/><path d="M15620 8801 c0 -5 5 -13 10 -16 6 -3 10 -2 10 4 0 5 -4 13 -10 16 -5
3 -10 2 -10 -4z"/><path d="M15651 8754 c0 -11 3 -14 6 -6 3 7 2 16 -1 19 -3 4 -6 -2 -5 -13z"/><path d="M15831 8624 c0 -11 3 -14 6 -6 3 7 2 16 -1 19 -3 4 -6 -2 -5 -13z"/><path d="M15751 8594 c0 -11 3 -14 6 -6 3 7 2 16 -1 19 -3 4 -6 -2 -5 -13z"/><path d="M15738 8555 c5 -11 12 -27 15 -35 5 -13 6 -13 6 1 1 8 -6 24 -15 35
-15 19 -15 19 -6 -1z"/><path d="M15770 8477 c0 -4 9 -25 21 -47 22 -41 40 -45 38 -7 -1 20 -2 20 -9
-3 -6 -18 -8 -20 -9 -7 -1 17 -41 79 -41 64z"/><path d="M15831 8364 c0 -11 3 -14 6 -6 3 7 2 16 -1 19 -3 4 -6 -2 -5 -13z"/><path d="M15911 8304 c0 -11 3 -14 6 -6 3 7 2 16 -1 19 -3 4 -6 -2 -5 -13z"/><path d="M15862 8290 c0 -14 2 -19 5 -12 2 6 2 18 0 25 -3 6 -5 1 -5 -13z"/><path d="M15885 8260 c-6 -18 9 -60 21 -60 3 0 2 5 -2 11 -4 7 -7 25 -6 40 1
34 -4 37 -13 9z"/><path d="M15992 8140 c0 -14 2 -19 5 -12 2 6 2 18 0 25 -3 6 -5 1 -5 -13z"/><path d="M15969 8048 c10 -18 21 -45 25 -60 3 -16 11 -28 16 -28 6 0 10 -9 10
-19 0 -11 4 -23 10 -26 14 -9 3 24 -40 118 -12 26 -26 47 -31 47 -5 0 0 -15
10 -32z"/><path d="M11727 7265 c-76 -26 -115 -89 -102 -164 13 -80 102 -122 179 -86 98
47 117 209 28 243 -51 20 -67 21 -105 7z"/><path d="M10879 6122 c-55 -36 -63 -52 -67 -122 -4 -65 -4 -66 32 -98 81 -71
202 -21 226 94 13 63 -3 105 -50 129 -39 20 -109 19 -141 -3z"/><path d="M17650 4070 c-75 -20 -115 -77 -108 -152 4 -39 12 -57 37 -81 27 -28
38 -32 84 -32 85 0 147 66 147 157 0 52 -31 93 -77 103 -52 11 -58 12 -83 5z"/><path d="M16504 4875 c-42 -18 -80 -66 -88 -108 -15 -78 46 -157 120 -157 83
0 141 63 145 158 3 59 -14 85 -68 108 -40 17 -68 17 -109 -1z"/><path d="M15450 3140 c-9 -6 -10 -10 -3 -10 6 0 15 5 18 10 8 12 4 12 -15 0z"/><path d="M15405 3120 c-3 -6 1 -7 9 -4 18 7 21 14 7 14 -6 0 -13 -4 -16 -10z"/><path d="M16172 2750 c0 -14 2 -19 5 -12 2 6 2 18 0 25 -3 6 -5 1 -5 -13z"/><path d="M11330 3530 c0 -5 5 -10 11 -10 5 0 7 5 4 10 -3 6 -8 10 -11 10 -2 0
-4 -4 -4 -10z"/><path d="M14810 4202 c0 -12 19 -26 26 -19 2 2 -2 10 -11 17 -9 8 -15 8 -15 2z"/><path d="M15618 2263 c12 -2 30 -2 40 0 9 3 -1 5 -23 4 -22 0 -30 -2 -17 -4z"/><path d="M15680 2260 c0 -5 7 -7 15 -4 8 4 15 8 15 10 0 2 -7 4 -15 4 -8 0
-15 -4 -15 -10z"/></g></svg>